<svg width="44" height="44" viewBox="0 0 44 44" fill="none" xmlns="http://www.w3.org/2000/svg">
<g clip-path="url(#clip0_89_218)">
<path d="M22 44C34.1503 44 44 34.1503 44 22C44 9.84974 34.1503 0 22 0C9.84974 0 0 9.84974 0 22C0 34.1503 9.84974 44 22 44Z" fill="#767DFF"/>
<path fill-rule="evenodd" clip-rule="evenodd" d="M18.9338 8.9375H25.0663C25.2788 8.93739 25.4875 8.9939 25.6709 9.1012C25.8543 9.20849 26.0058 9.36272 26.1099 9.548L35.6056 26.4866C35.7056 26.6652 35.7581 26.8664 35.7581 27.071C35.7581 27.2756 35.7056 27.4768 35.6056 27.6554L32.5669 33.0756C32.4631 33.261 32.3119 33.4153 32.1287 33.5229C31.9455 33.6304 31.737 33.6872 31.5246 33.6875H12.4754C12.2628 33.6875 12.054 33.6308 11.8705 33.5232C11.6871 33.4157 11.5356 33.2612 11.4318 33.0756L8.39439 27.6554C8.29443 27.4768 8.24194 27.2756 8.24194 27.071C8.24194 26.8664 8.29443 26.6652 8.39439 26.4866L17.8901 9.548C17.9942 9.36272 18.1457 9.20849 18.3291 9.1012C18.5126 8.9939 18.7213 8.93739 18.9338 8.9375ZM22 15.6764L15.6021 27.071H28.3979L22 15.6764Z" fill="white"/>
</g>
<defs>
<clipPath id="clip0_89_218">
<rect width="44" height="44" fill="white"/>
</clipPath>
</defs>
</svg>
