<svg width="33" height="33" viewBox="0 0 33 33" fill="none" xmlns="http://www.w3.org/2000/svg">
<g clip-path="url(#clip0_60_75)">
<path d="M7.758 0.5H25.742C29.6125 0.5 32.75 3.6375 32.75 7.508V25.492C32.75 29.3625 29.6125 32.5 25.742 32.5H7.758C3.8875 32.5 0.75 29.3625 0.75 25.492V7.508C0.75 3.6375 3.8875 0.5 7.758 0.5Z" fill="url(#paint0_linear_60_75)"/>
<path d="M11.0053 23.7261L11.0083 23.7271L9.91418 25.6221C9.51481 26.3138 8.63031 26.5508 7.93856 26.1515C7.24693 25.7521 7.00981 24.8676 7.40918 24.1758L8.21518 22.7798L8.29256 22.6458C8.43068 22.4473 8.77156 22.1046 9.45343 22.1691C9.45343 22.1691 11.0581 22.3432 11.1742 23.1772C11.1742 23.1772 11.1899 23.4516 11.0053 23.7261ZM26.5232 18.8861H23.1114C22.8791 18.8705 22.7777 18.7875 22.7377 18.7392L22.7352 18.7348L19.0831 12.4091L19.0783 12.4122L18.8593 12.0982C18.5003 11.5492 17.9303 12.9532 17.9303 12.9532C17.2497 14.5177 18.0269 16.2963 18.2978 16.834L23.3706 25.6202C23.7698 26.3118 24.6543 26.549 25.3462 26.1495C26.0378 25.7501 26.2749 24.8656 25.8754 24.1738L24.6071 21.9768C24.5824 21.9236 24.5397 21.7791 24.7998 21.7785H26.5232C27.3219 21.7785 27.9694 21.131 27.9694 20.3322C27.9694 19.5335 27.3219 18.886 26.5232 18.886V18.8861ZM19.8964 20.8521C19.8964 20.8521 20.0786 21.7785 19.3739 21.7785H6.76156C5.96281 21.7785 5.31531 21.131 5.31531 20.3322C5.31531 19.5335 5.96281 18.886 6.76156 18.886H10.0041C10.5276 18.8557 10.6516 18.5535 10.6516 18.5535L10.6546 18.555L14.8871 11.224L14.8858 11.2237C14.9629 11.0821 14.8987 10.9482 14.8876 10.9271L13.4897 8.50596C13.0903 7.81434 13.3273 6.92971 14.0191 6.53046C14.7108 6.13109 15.5953 6.36796 15.9947 7.05971L16.6429 8.18259L17.2901 7.06171C17.6894 6.37009 18.5739 6.13296 19.2657 6.53246C19.9574 6.93184 20.1944 7.81621 19.7951 8.50796L13.9053 18.7092C13.8796 18.7713 13.8717 18.8688 14.0633 18.886H17.5838L17.5846 18.9203C17.5846 18.9203 19.6193 18.952 19.8964 20.8521Z" fill="white"/>
</g>
<defs>
<linearGradient id="paint0_linear_60_75" x1="16.75" y1="0.5" x2="16.75" y2="32.5" gradientUnits="userSpaceOnUse">
<stop stop-color="#17C9FB"/>
<stop offset="1" stop-color="#1A74E8"/>
</linearGradient>
<clipPath id="clip0_60_75">
<rect width="32" height="32" fill="white" transform="translate(0.75 0.5)"/>
</clipPath>
</defs>
</svg>
