<svg width="80" height="27" viewBox="0 0 80 27" fill="none" xmlns="http://www.w3.org/2000/svg">
<path d="M5.99154 13.3821C6.09674 13.5771 6.29678 13.6987 6.51435 13.6987H9.90222V20.3881C9.90222 20.7259 10.17 21 10.4999 21C10.8299 21 11.0977 20.7259 11.0977 20.3881V13.6987H14.4855C14.7039 13.6987 14.9039 13.5771 15.0083 13.3821C15.1143 13.1871 15.1072 12.9489 14.9916 12.7604L11.006 6.28556C10.896 6.1077 10.7056 6 10.4999 6C10.2943 6 10.1038 6.1077 9.99387 6.28556L6.00828 12.7604C5.94771 12.8599 5.91663 12.9733 5.91663 13.0868C5.91663 13.1879 5.94213 13.2899 5.99154 13.3821Z" fill="#14A611"/>
<path d="M31.1956 20.18C30.3316 20.18 29.5876 20.06 28.9636 19.82C28.3516 19.568 27.8416 19.226 27.4336 18.794C27.0376 18.35 26.7376 17.84 26.5336 17.264C26.3416 16.676 26.2276 16.052 26.1916 15.392C26.1796 15.068 26.1676 14.708 26.1556 14.312C26.1556 13.904 26.1556 13.496 26.1556 13.088C26.1676 12.68 26.1796 12.308 26.1916 11.972C26.2156 11.312 26.3296 10.694 26.5336 10.118C26.7496 9.542 27.0616 9.038 27.4696 8.606C27.8776 8.174 28.3876 7.838 28.9996 7.598C29.6236 7.346 30.3556 7.22 31.1956 7.22C32.0356 7.22 32.7616 7.346 33.3736 7.598C33.9856 7.838 34.4956 8.174 34.9036 8.606C35.3116 9.038 35.6176 9.542 35.8216 10.118C36.0376 10.694 36.1636 11.312 36.1996 11.972C36.2116 12.308 36.2176 12.68 36.2176 13.088C36.2296 13.496 36.2296 13.904 36.2176 14.312C36.2176 14.708 36.2116 15.068 36.1996 15.392C36.1636 16.052 36.0436 16.676 35.8396 17.264C35.6356 17.84 35.3296 18.35 34.9216 18.794C34.5256 19.226 34.0156 19.568 33.3916 19.82C32.7796 20.06 32.0476 20.18 31.1956 20.18ZM31.1956 17.84C31.8916 17.84 32.4016 17.612 32.7256 17.156C33.0496 16.7 33.2236 16.082 33.2476 15.302C33.2596 14.954 33.2656 14.594 33.2656 14.222C33.2776 13.85 33.2776 13.478 33.2656 13.106C33.2656 12.734 33.2596 12.386 33.2476 12.062C33.2236 11.318 33.0496 10.712 32.7256 10.244C32.4016 9.776 31.8916 9.536 31.1956 9.524C30.4876 9.536 29.9716 9.776 29.6476 10.244C29.3356 10.712 29.1676 11.318 29.1436 12.062C29.1316 12.386 29.1196 12.734 29.1076 13.106C29.1076 13.478 29.1076 13.85 29.1076 14.222C29.1196 14.594 29.1316 14.954 29.1436 15.302C29.1676 16.082 29.3416 16.7 29.6656 17.156C29.9896 17.612 30.4996 17.84 31.1956 17.84ZM38.5248 20C38.3928 20 38.2848 19.958 38.2008 19.874C38.1168 19.79 38.0748 19.682 38.0748 19.55V17.534C38.0748 17.402 38.1168 17.294 38.2008 17.21C38.2848 17.126 38.3928 17.084 38.5248 17.084H40.5408C40.6728 17.084 40.7808 17.126 40.8648 17.21C40.9488 17.294 40.9908 17.402 40.9908 17.534V19.55C40.9908 19.682 40.9488 19.79 40.8648 19.874C40.7808 19.958 40.6728 20 40.5408 20H38.5248ZM47.7474 20.18C46.8594 20.18 46.0974 20.072 45.4614 19.856C44.8254 19.64 44.3034 19.364 43.8954 19.028C43.4874 18.692 43.1814 18.326 42.9774 17.93C42.7734 17.522 42.6654 17.132 42.6534 16.76C42.6534 16.652 42.6894 16.562 42.7614 16.49C42.8334 16.418 42.9234 16.382 43.0314 16.382H45.0114C45.1434 16.382 45.2514 16.412 45.3354 16.472C45.4194 16.52 45.4974 16.61 45.5694 16.742C45.6654 17.018 45.8214 17.24 46.0374 17.408C46.2534 17.576 46.5054 17.696 46.7934 17.768C47.0934 17.828 47.4114 17.858 47.7474 17.858C48.4194 17.858 48.9474 17.702 49.3314 17.39C49.7154 17.078 49.9074 16.64 49.9074 16.076C49.9074 15.5 49.7274 15.086 49.3674 14.834C49.0074 14.582 48.4974 14.456 47.8374 14.456H45.9114C45.7914 14.456 45.6894 14.414 45.6054 14.33C45.5214 14.246 45.4794 14.144 45.4794 14.024V13.142C45.4794 12.998 45.5034 12.878 45.5514 12.782C45.6114 12.686 45.6714 12.614 45.7314 12.566L48.8274 9.722H43.7514C43.6194 9.722 43.5114 9.68 43.4274 9.596C43.3434 9.512 43.3014 9.41 43.3014 9.29V7.85C43.3014 7.718 43.3434 7.61 43.4274 7.526C43.5114 7.442 43.6194 7.4 43.7514 7.4H51.7434C51.8754 7.4 51.9834 7.442 52.0674 7.526C52.1514 7.61 52.1934 7.718 52.1934 7.85V9.146C52.1934 9.278 52.1694 9.392 52.1214 9.488C52.0734 9.572 52.0134 9.638 51.9414 9.686L49.0074 12.584L49.1874 12.602C49.8954 12.674 50.5254 12.848 51.0774 13.124C51.6294 13.4 52.0614 13.796 52.3734 14.312C52.6974 14.816 52.8594 15.458 52.8594 16.238C52.8594 17.054 52.6374 17.756 52.1934 18.344C51.7494 18.932 51.1434 19.388 50.3754 19.712C49.6074 20.024 48.7314 20.18 47.7474 20.18ZM59.3314 20.18C58.4434 20.18 57.6814 20.072 57.0454 19.856C56.4094 19.64 55.8874 19.364 55.4794 19.028C55.0714 18.692 54.7654 18.326 54.5614 17.93C54.3574 17.522 54.2494 17.132 54.2374 16.76C54.2374 16.652 54.2734 16.562 54.3454 16.49C54.4174 16.418 54.5074 16.382 54.6154 16.382H56.5954C56.7274 16.382 56.8354 16.412 56.9194 16.472C57.0034 16.52 57.0814 16.61 57.1534 16.742C57.2494 17.018 57.4054 17.24 57.6214 17.408C57.8374 17.576 58.0894 17.696 58.3774 17.768C58.6774 17.828 58.9954 17.858 59.3314 17.858C60.0034 17.858 60.5314 17.702 60.9154 17.39C61.2994 17.078 61.4914 16.64 61.4914 16.076C61.4914 15.5 61.3114 15.086 60.9514 14.834C60.5914 14.582 60.0814 14.456 59.4214 14.456H57.4954C57.3754 14.456 57.2734 14.414 57.1894 14.33C57.1054 14.246 57.0634 14.144 57.0634 14.024V13.142C57.0634 12.998 57.0874 12.878 57.1354 12.782C57.1954 12.686 57.2554 12.614 57.3154 12.566L60.4114 9.722H55.3354C55.2034 9.722 55.0954 9.68 55.0114 9.596C54.9274 9.512 54.8854 9.41 54.8854 9.29V7.85C54.8854 7.718 54.9274 7.61 55.0114 7.526C55.0954 7.442 55.2034 7.4 55.3354 7.4H63.3274C63.4594 7.4 63.5674 7.442 63.6514 7.526C63.7354 7.61 63.7774 7.718 63.7774 7.85V9.146C63.7774 9.278 63.7534 9.392 63.7054 9.488C63.6574 9.572 63.5974 9.638 63.5254 9.686L60.5914 12.584L60.7714 12.602C61.4794 12.674 62.1094 12.848 62.6614 13.124C63.2134 13.4 63.6454 13.796 63.9574 14.312C64.2814 14.816 64.4434 15.458 64.4434 16.238C64.4434 17.054 64.2214 17.756 63.7774 18.344C63.3334 18.932 62.7274 19.388 61.9594 19.712C61.1914 20.024 60.3154 20.18 59.3314 20.18ZM67.1894 20C66.9254 20 66.7934 19.88 66.7934 19.64C66.7934 19.568 66.8174 19.502 66.8654 19.442L75.7574 7.742C75.8414 7.634 75.9254 7.55 76.0094 7.49C76.0934 7.43 76.2134 7.4 76.3694 7.4H77.4854C77.7494 7.4 77.8814 7.52 77.8814 7.76C77.8814 7.832 77.8574 7.898 77.8094 7.958L68.9174 19.658C68.8334 19.766 68.7494 19.85 68.6654 19.91C68.5934 19.97 68.4734 20 68.3054 20H67.1894ZM76.0454 20.09C75.2294 20.09 74.5814 19.874 74.1014 19.442C73.6334 19.01 73.3754 18.434 73.3274 17.714C73.3034 17.402 73.2914 17.126 73.2914 16.886C73.3034 16.646 73.3154 16.358 73.3274 16.022C73.3634 15.302 73.6094 14.72 74.0654 14.276C74.5334 13.832 75.1934 13.61 76.0454 13.61C76.8974 13.61 77.5514 13.832 78.0074 14.276C78.4754 14.72 78.7274 15.302 78.7634 16.022C78.7874 16.358 78.7994 16.646 78.7994 16.886C78.7994 17.126 78.7874 17.402 78.7634 17.714C78.7274 18.434 78.4634 19.01 77.9714 19.442C77.4914 19.874 76.8494 20.09 76.0454 20.09ZM76.0454 18.614C76.2734 18.614 76.4534 18.566 76.5854 18.47C76.7174 18.374 76.8134 18.248 76.8734 18.092C76.9454 17.936 76.9874 17.774 76.9994 17.606C77.0234 17.33 77.0354 17.084 77.0354 16.868C77.0354 16.64 77.0234 16.388 76.9994 16.112C76.9874 15.86 76.9094 15.632 76.7654 15.428C76.6214 15.224 76.3814 15.122 76.0454 15.122C75.7094 15.122 75.4694 15.224 75.3254 15.428C75.1934 15.632 75.1154 15.86 75.0914 16.112C75.0794 16.388 75.0734 16.64 75.0734 16.868C75.0734 17.084 75.0794 17.33 75.0914 17.606C75.1154 17.774 75.1514 17.936 75.1994 18.092C75.2594 18.248 75.3554 18.374 75.4874 18.47C75.6314 18.566 75.8174 18.614 76.0454 18.614ZM68.6474 13.754C67.8314 13.754 67.1834 13.544 66.7034 13.124C66.2354 12.692 65.9774 12.116 65.9294 11.396C65.9054 11.084 65.8934 10.814 65.8934 10.586C65.9054 10.346 65.9174 10.058 65.9294 9.722C65.9654 8.99 66.2114 8.408 66.6674 7.976C67.1354 7.532 67.7954 7.31 68.6474 7.31C69.5114 7.31 70.1714 7.532 70.6274 7.976C71.0834 8.408 71.3294 8.99 71.3654 9.722C71.3894 10.058 71.4014 10.346 71.4014 10.586C71.4014 10.814 71.3894 11.084 71.3654 11.396C71.3294 12.116 71.0714 12.692 70.5914 13.124C70.1114 13.544 69.4634 13.754 68.6474 13.754ZM68.6474 12.296C68.8754 12.296 69.0554 12.248 69.1874 12.152C69.3194 12.056 69.4154 11.93 69.4754 11.774C69.5474 11.618 69.5894 11.462 69.6014 11.306C69.6254 11.018 69.6374 10.766 69.6374 10.55C69.6374 10.322 69.6254 10.076 69.6014 9.812C69.5894 9.56 69.5114 9.332 69.3674 9.128C69.2234 8.912 68.9834 8.804 68.6474 8.804C68.3114 8.804 68.0714 8.912 67.9274 9.128C67.7954 9.332 67.7174 9.56 67.6934 9.812C67.6814 10.076 67.6754 10.322 67.6754 10.55C67.6754 10.766 67.6814 11.018 67.6934 11.306C67.7174 11.462 67.7594 11.618 67.8194 11.774C67.8794 11.93 67.9754 12.056 68.1074 12.152C68.2394 12.248 68.4194 12.296 68.6474 12.296Z" fill="#14A611"/>
</svg>
