<svg width="44" height="44" viewBox="0 0 44 44" fill="none" xmlns="http://www.w3.org/2000/svg">
<g clip-path="url(#clip0_46_406)">
<ellipse cx="22" cy="22.0001" rx="22" ry="22.0001" fill="#F3BA2F"/>
<path d="M16.3032 19.6595L22 13.9627L27.6994 19.662L31.0141 16.3473L22 7.33337L12.9888 16.3446L16.3033 19.6593L16.3032 19.6595ZM7.33331 22.0001L10.6481 18.6848L13.9626 21.9994L10.6479 25.3142L7.33331 22.0001ZM16.3032 24.341L22 30.0375L27.6993 24.3383L31.0158 27.6512L31.0141 27.653L22 36.6668L12.9888 27.6556L12.9841 27.6509L16.3036 24.3407L16.3032 24.341ZM30.0373 22.0015L33.3521 18.6867L36.6666 22.0013L33.352 25.3161L30.0373 22.0015Z" fill="white"/>
<path d="M25.3618 21.9983H25.3632L21.9999 18.6347L19.514 21.12L19.2284 21.4058L18.6394 21.9949L18.6347 21.9995L18.6394 22.0043L21.9999 25.3654L25.3634 22.0018L25.3651 21.9999L25.362 21.9983" fill="white"/>
</g>
<defs>
<clipPath id="clip0_46_406">
<rect width="44" height="44" fill="white"/>
</clipPath>
</defs>
</svg>
