<svg width="24" height="25" viewBox="0 0 24 25" fill="none" xmlns="http://www.w3.org/2000/svg">
<g clip-path="url(#clip0_77_392)">
<path d="M23.6411 15.4022C22.0378 21.8342 15.5212 25.7441 9.09836 24.1407C2.66617 22.5374 -1.24377 16.021 0.35964 9.5983C1.96295 3.16629 8.47014 -0.743643 14.9023 0.859763C21.3251 2.4537 25.2445 8.97007 23.6411 15.4022Z" fill="url(#paint0_linear_77_392)"/>
<path d="M17.7136 11.0047C17.948 9.41099 16.7386 8.54849 15.0699 7.97661L15.6136 5.81099L14.3011 5.48286L13.7761 7.59224C13.4293 7.50786 13.073 7.42349 12.7168 7.34849L13.2418 5.22974L11.9293 4.90161L11.3949 7.05786C11.1043 6.99224 10.823 6.92661 10.5511 6.86099V6.85161L8.73238 6.40161L8.38551 7.80786C8.38551 7.80786 9.36051 8.03286 9.34176 8.04224C9.87613 8.17349 9.96988 8.52974 9.95113 8.81099L9.33239 11.2766C9.36988 11.286 9.41676 11.2954 9.47301 11.3235C9.42614 11.3141 9.37926 11.3047 9.33239 11.286L8.46989 14.736C8.40426 14.8954 8.23551 15.1391 7.86989 15.0454C7.87926 15.0641 6.91364 14.811 6.91364 14.811L6.25739 16.3204L7.97301 16.7516C8.29176 16.836 8.60114 16.911 8.91051 16.9954L8.36676 19.1797L9.67926 19.5079L10.223 17.3422C10.5793 17.436 10.9355 17.5297 11.273 17.6141L10.7386 19.7704L12.0511 20.0985L12.5949 17.9141C14.8449 18.336 16.5324 18.1672 17.2355 16.1329C17.8074 14.5016 17.2074 13.5547 16.0261 12.936C16.898 12.7391 17.5449 12.1672 17.7136 11.0047ZM14.7043 15.2235C14.3011 16.8547 11.5449 15.9735 10.6543 15.7485L11.3761 12.8516C12.2668 13.0766 15.1355 13.5172 14.7043 15.2235ZM15.1168 10.9766C14.7418 12.4672 12.4543 11.7079 11.7136 11.5204L12.3699 8.89536C13.1105 9.08286 15.5011 9.42974 15.1168 10.9766Z" fill="white"/>
</g>
<defs>
<linearGradient id="paint0_linear_77_392" x1="11.9936" y1="0.494484" x2="11.9936" y2="24.4978" gradientUnits="userSpaceOnUse">
<stop stop-color="#F9AA4B"/>
<stop offset="1" stop-color="#F7931A"/>
</linearGradient>
<clipPath id="clip0_77_392">
<rect width="24" height="24" fill="white" transform="translate(0 0.5)"/>
</clipPath>
</defs>
</svg>
