<svg width="76" height="27" viewBox="0 0 76 27" fill="none" xmlns="http://www.w3.org/2000/svg">
<path d="M15.0084 13.6179C14.9032 13.4229 14.7032 13.3013 14.4856 13.3013H11.0978V6.61191C11.0978 6.27414 10.83 6 10.5 6C10.1701 6 9.90232 6.27414 9.90232 6.61191V13.3013H6.51445C6.29608 13.3013 6.09605 13.4229 5.99164 13.6179C5.88565 13.8129 5.89282 14.0511 6.00838 14.2396L9.99397 20.7144C10.104 20.8923 10.2944 21 10.5 21C10.7057 21 10.8961 20.8923 11.0061 20.7144L14.9917 14.2396C15.0523 14.1401 15.0834 14.0267 15.0834 13.9132C15.0834 13.8121 15.0578 13.7101 15.0084 13.6179Z" fill="#FA2256"/>
<path d="M29.6325 20C29.5125 20 29.4045 19.958 29.3085 19.874C29.2245 19.79 29.1825 19.682 29.1825 19.55V10.604L26.5905 12.602C26.4825 12.686 26.3685 12.716 26.2485 12.692C26.1405 12.668 26.0445 12.602 25.9605 12.494L25.0605 11.324C24.9885 11.216 24.9585 11.102 24.9705 10.982C24.9945 10.862 25.0605 10.766 25.1685 10.694L29.2725 7.526C29.3445 7.478 29.4105 7.448 29.4705 7.436C29.5425 7.412 29.6205 7.4 29.7045 7.4H31.6125C31.7325 7.4 31.8345 7.442 31.9185 7.526C32.0025 7.61 32.0445 7.718 32.0445 7.85V19.55C32.0445 19.682 32.0025 19.79 31.9185 19.874C31.8345 19.958 31.7325 20 31.6125 20H29.6325ZM34.7358 20C34.6038 20 34.4958 19.958 34.4118 19.874C34.3278 19.79 34.2858 19.682 34.2858 19.55V17.534C34.2858 17.402 34.3278 17.294 34.4118 17.21C34.4958 17.126 34.6038 17.084 34.7358 17.084H36.7518C36.8838 17.084 36.9918 17.126 37.0758 17.21C37.1598 17.294 37.2018 17.402 37.2018 17.534V19.55C37.2018 19.682 37.1598 19.79 37.0758 19.874C36.9918 19.958 36.8838 20 36.7518 20H34.7358ZM43.8684 20.198C42.7884 20.198 41.8824 20.024 41.1504 19.676C40.4184 19.328 39.8604 18.872 39.4764 18.308C39.1044 17.744 38.9064 17.144 38.8824 16.508C38.8824 16.4 38.9184 16.31 38.9904 16.238C39.0624 16.166 39.1524 16.13 39.2604 16.13H41.2944C41.4384 16.13 41.5524 16.166 41.6364 16.238C41.7324 16.298 41.8044 16.382 41.8524 16.49C41.9724 16.814 42.1284 17.078 42.3204 17.282C42.5244 17.486 42.7584 17.636 43.0224 17.732C43.2864 17.828 43.5684 17.876 43.8684 17.876C44.2524 17.876 44.6064 17.798 44.9304 17.642C45.2544 17.474 45.5124 17.234 45.7044 16.922C45.8964 16.61 45.9924 16.226 45.9924 15.77C45.9924 15.374 45.9024 15.026 45.7224 14.726C45.5424 14.426 45.2904 14.192 44.9664 14.024C44.6424 13.856 44.2764 13.772 43.8684 13.772C43.5564 13.772 43.2984 13.808 43.0944 13.88C42.9024 13.952 42.7404 14.042 42.6084 14.15C42.4764 14.246 42.3564 14.336 42.2484 14.42C42.1404 14.492 42.0204 14.528 41.8884 14.528H39.8904C39.7824 14.528 39.6864 14.492 39.6024 14.42C39.5304 14.336 39.4944 14.24 39.4944 14.132L40.1244 7.922C40.1484 7.754 40.2084 7.628 40.3044 7.544C40.4124 7.448 40.5384 7.4 40.6824 7.4H47.6664C47.7984 7.4 47.9064 7.442 47.9904 7.526C48.0744 7.61 48.1164 7.718 48.1164 7.85V9.29C48.1164 9.41 48.0744 9.512 47.9904 9.596C47.9064 9.68 47.7984 9.722 47.6664 9.722H42.4644L42.1944 12.368C42.4344 12.212 42.7284 12.074 43.0764 11.954C43.4364 11.822 43.9344 11.756 44.5704 11.756C45.1464 11.756 45.6924 11.852 46.2084 12.044C46.7364 12.224 47.2044 12.494 47.6124 12.854C48.0204 13.214 48.3384 13.646 48.5664 14.15C48.8064 14.642 48.9264 15.206 48.9264 15.842C48.9264 16.706 48.7224 17.468 48.3144 18.128C47.9064 18.776 47.3244 19.286 46.5684 19.658C45.8124 20.018 44.9124 20.198 43.8684 20.198ZM55.3314 20.18C54.4434 20.18 53.6814 20.072 53.0454 19.856C52.4094 19.64 51.8874 19.364 51.4794 19.028C51.0714 18.692 50.7654 18.326 50.5614 17.93C50.3574 17.522 50.2494 17.132 50.2374 16.76C50.2374 16.652 50.2734 16.562 50.3454 16.49C50.4174 16.418 50.5074 16.382 50.6154 16.382H52.5954C52.7274 16.382 52.8354 16.412 52.9194 16.472C53.0034 16.52 53.0814 16.61 53.1534 16.742C53.2494 17.018 53.4054 17.24 53.6214 17.408C53.8374 17.576 54.0894 17.696 54.3774 17.768C54.6774 17.828 54.9954 17.858 55.3314 17.858C56.0034 17.858 56.5314 17.702 56.9154 17.39C57.2994 17.078 57.4914 16.64 57.4914 16.076C57.4914 15.5 57.3114 15.086 56.9514 14.834C56.5914 14.582 56.0814 14.456 55.4214 14.456H53.4954C53.3754 14.456 53.2734 14.414 53.1894 14.33C53.1054 14.246 53.0634 14.144 53.0634 14.024V13.142C53.0634 12.998 53.0874 12.878 53.1354 12.782C53.1954 12.686 53.2554 12.614 53.3154 12.566L56.4114 9.722H51.3354C51.2034 9.722 51.0954 9.68 51.0114 9.596C50.9274 9.512 50.8854 9.41 50.8854 9.29V7.85C50.8854 7.718 50.9274 7.61 51.0114 7.526C51.0954 7.442 51.2034 7.4 51.3354 7.4H59.3274C59.4594 7.4 59.5674 7.442 59.6514 7.526C59.7354 7.61 59.7774 7.718 59.7774 7.85V9.146C59.7774 9.278 59.7534 9.392 59.7054 9.488C59.6574 9.572 59.5974 9.638 59.5254 9.686L56.5914 12.584L56.7714 12.602C57.4794 12.674 58.1094 12.848 58.6614 13.124C59.2134 13.4 59.6454 13.796 59.9574 14.312C60.2814 14.816 60.4434 15.458 60.4434 16.238C60.4434 17.054 60.2214 17.756 59.7774 18.344C59.3334 18.932 58.7274 19.388 57.9594 19.712C57.1914 20.024 56.3154 20.18 55.3314 20.18ZM63.1894 20C62.9254 20 62.7934 19.88 62.7934 19.64C62.7934 19.568 62.8174 19.502 62.8654 19.442L71.7574 7.742C71.8414 7.634 71.9254 7.55 72.0094 7.49C72.0934 7.43 72.2134 7.4 72.3694 7.4H73.4854C73.7494 7.4 73.8814 7.52 73.8814 7.76C73.8814 7.832 73.8574 7.898 73.8094 7.958L64.9174 19.658C64.8334 19.766 64.7494 19.85 64.6654 19.91C64.5934 19.97 64.4734 20 64.3054 20H63.1894ZM72.0454 20.09C71.2294 20.09 70.5814 19.874 70.1014 19.442C69.6334 19.01 69.3754 18.434 69.3274 17.714C69.3034 17.402 69.2914 17.126 69.2914 16.886C69.3034 16.646 69.3154 16.358 69.3274 16.022C69.3634 15.302 69.6094 14.72 70.0654 14.276C70.5334 13.832 71.1934 13.61 72.0454 13.61C72.8974 13.61 73.5514 13.832 74.0074 14.276C74.4754 14.72 74.7274 15.302 74.7634 16.022C74.7874 16.358 74.7994 16.646 74.7994 16.886C74.7994 17.126 74.7874 17.402 74.7634 17.714C74.7274 18.434 74.4634 19.01 73.9714 19.442C73.4914 19.874 72.8494 20.09 72.0454 20.09ZM72.0454 18.614C72.2734 18.614 72.4534 18.566 72.5854 18.47C72.7174 18.374 72.8134 18.248 72.8734 18.092C72.9454 17.936 72.9874 17.774 72.9994 17.606C73.0234 17.33 73.0354 17.084 73.0354 16.868C73.0354 16.64 73.0234 16.388 72.9994 16.112C72.9874 15.86 72.9094 15.632 72.7654 15.428C72.6214 15.224 72.3814 15.122 72.0454 15.122C71.7094 15.122 71.4694 15.224 71.3254 15.428C71.1934 15.632 71.1154 15.86 71.0914 16.112C71.0794 16.388 71.0734 16.64 71.0734 16.868C71.0734 17.084 71.0794 17.33 71.0914 17.606C71.1154 17.774 71.1514 17.936 71.1994 18.092C71.2594 18.248 71.3554 18.374 71.4874 18.47C71.6314 18.566 71.8174 18.614 72.0454 18.614ZM64.6474 13.754C63.8314 13.754 63.1834 13.544 62.7034 13.124C62.2354 12.692 61.9774 12.116 61.9294 11.396C61.9054 11.084 61.8934 10.814 61.8934 10.586C61.9054 10.346 61.9174 10.058 61.9294 9.722C61.9654 8.99 62.2114 8.408 62.6674 7.976C63.1354 7.532 63.7954 7.31 64.6474 7.31C65.5114 7.31 66.1714 7.532 66.6274 7.976C67.0834 8.408 67.3294 8.99 67.3654 9.722C67.3894 10.058 67.4014 10.346 67.4014 10.586C67.4014 10.814 67.3894 11.084 67.3654 11.396C67.3294 12.116 67.0714 12.692 66.5914 13.124C66.1114 13.544 65.4634 13.754 64.6474 13.754ZM64.6474 12.296C64.8754 12.296 65.0554 12.248 65.1874 12.152C65.3194 12.056 65.4154 11.93 65.4754 11.774C65.5474 11.618 65.5894 11.462 65.6014 11.306C65.6254 11.018 65.6374 10.766 65.6374 10.55C65.6374 10.322 65.6254 10.076 65.6014 9.812C65.5894 9.56 65.5114 9.332 65.3674 9.128C65.2234 8.912 64.9834 8.804 64.6474 8.804C64.3114 8.804 64.0714 8.912 63.9274 9.128C63.7954 9.332 63.7174 9.56 63.6934 9.812C63.6814 10.076 63.6754 10.322 63.6754 10.55C63.6754 10.766 63.6814 11.018 63.6934 11.306C63.7174 11.462 63.7594 11.618 63.8194 11.774C63.8794 11.93 63.9754 12.056 64.1074 12.152C64.2394 12.248 64.4194 12.296 64.6474 12.296Z" fill="#FA2256"/>
</svg>
