<svg width="44" height="44" viewBox="0 0 44 44" fill="none" xmlns="http://www.w3.org/2000/svg">
<g clip-path="url(#clip0_46_481)">
<circle cx="22" cy="22" r="22" fill="#7F6EE9"/>
<path d="M22.4878 5.54686V5.56248C22.5034 5.64058 22.5034 5.7343 22.5034 5.82801V17.0898C22.4878 17.1523 22.441 17.1679 22.3941 17.1992C22.0661 17.3554 21.7537 17.4959 21.4257 17.6365C20.9727 17.8396 20.5041 18.0582 20.0511 18.2613L18.4111 19.011C17.9581 19.2141 17.5051 19.4172 17.0678 19.6202C16.5367 19.8701 15.99 20.1044 15.459 20.3543C15.006 20.5574 14.553 20.7761 14.0844 20.9791C13.7095 21.1509 13.3347 21.3071 12.9754 21.4789C12.9442 21.4946 12.9129 21.5102 12.8817 21.5102C12.8661 21.5102 12.8661 21.5102 12.8505 21.4946L13.2722 20.7917C14.0844 19.4484 14.881 18.1207 15.6932 16.7774C16.5523 15.3404 17.427 13.9034 18.2861 12.4664C19.0827 11.1387 19.8949 9.81104 20.6916 8.48336C21.2695 7.51494 21.863 6.54652 22.441 5.5781C22.4566 5.54686 22.4722 5.53124 22.4722 5.5H22.4878C22.4722 5.51562 22.4878 5.53124 22.4878 5.54686Z" fill="#F3F3F3"/>
<path d="M32.0768 21.4946L32.0924 21.5102L29.7963 22.8691L22.58 27.1333C22.5488 27.1489 22.5176 27.1645 22.5019 27.1801C22.4551 27.1801 22.4551 27.1333 22.4551 27.1177V26.9771V17.3241C22.4551 17.2773 22.4551 17.2148 22.4707 17.1679C22.4863 17.1054 22.5332 17.1211 22.58 17.1367C22.7831 17.2304 23.0018 17.3241 23.2048 17.4178C23.814 17.699 24.4232 17.9801 25.0323 18.2457C25.5634 18.48 26.0788 18.7299 26.6099 18.9642C27.141 19.1985 27.6721 19.4484 28.2031 19.6827C28.6561 19.8857 29.1247 20.1044 29.5777 20.3075C30.0306 20.5105 30.4992 20.7292 30.9522 20.9323C31.3114 21.0885 31.6707 21.2603 32.03 21.4165C32.03 21.4633 32.0456 21.479 32.0768 21.4946Z" fill="#8A8DA7"/>
<path d="M22.4865 36.88C22.4865 36.8956 22.4709 36.9112 22.4709 36.9268H22.4552C22.4552 36.8956 22.424 36.88 22.4084 36.8487C21.44 35.4898 20.4715 34.1153 19.5031 32.7564C18.5191 31.3662 17.5194 29.9604 16.5354 28.5703C15.5826 27.227 14.6141 25.8681 13.6613 24.5248C13.4114 24.1655 13.1615 23.8219 12.9116 23.4626C12.896 23.4314 12.8804 23.4158 12.8491 23.3689C12.896 23.3689 12.9272 23.4002 12.9428 23.4158C14.3018 24.2124 15.645 25.009 17.004 25.8056C18.5659 26.7272 20.1123 27.6487 21.6742 28.5703L22.4709 29.0389C22.5021 29.0701 22.5021 29.1014 22.5021 29.1326V36.6613C22.5021 36.7394 22.5021 36.8175 22.4865 36.88Z" fill="#F3F3F3"/>
<path d="M12.8334 21.5258V21.5102C13.3332 21.2916 13.8174 21.0573 14.3172 20.8386C14.9577 20.5418 15.5981 20.2607 16.2385 19.9639C16.7227 19.7452 17.2225 19.5109 17.7067 19.2922C18.4252 18.9642 19.1281 18.6518 19.8466 18.3238C20.3308 18.1051 20.815 17.8865 21.3149 17.6522C21.6585 17.496 22.0178 17.3398 22.3614 17.1836C22.3926 17.168 22.4395 17.1523 22.4551 17.1211C22.4707 17.1211 22.4707 17.1367 22.4551 17.1523V27.0708C22.4551 27.1177 22.4395 27.1646 22.4707 27.1958C22.4395 27.2427 22.4082 27.1958 22.3926 27.1802C22.2521 27.1021 22.1115 27.024 21.9709 26.9303C18.9563 25.1496 15.9261 23.3534 12.9115 21.5727C12.8959 21.5571 12.8646 21.5415 12.8334 21.5258Z" fill="#C5C8D9"/>
<path d="M32.0457 23.3689H32.0613C32.0613 23.4002 32.0301 23.4314 32.0145 23.4626C29.1404 27.5081 26.2664 31.5693 23.3924 35.6148C23.0956 36.0365 22.7832 36.4582 22.4864 36.88C22.4708 36.8643 22.4708 36.8487 22.4708 36.8331V36.7394V29.1638V29.0233C23.1269 28.6328 23.7673 28.2579 24.4233 27.8674C26.9537 26.3679 29.4841 24.884 31.9988 23.3845C32.0145 23.4002 32.0301 23.3845 32.0457 23.3689Z" fill="#C5C8D9"/>
<path d="M22.4708 17.1523V17.121V17.0273V5.68743C22.4708 5.64057 22.4552 5.60933 22.4864 5.56247C25.6572 10.8263 28.828 16.0745 31.9832 21.3384C32.0145 21.3852 32.0613 21.4477 32.0769 21.5102C31.8583 21.4321 31.6552 21.3227 31.4521 21.229C31.2022 21.1197 30.9367 20.9947 30.6868 20.8854C30.5306 20.8073 30.3588 20.7448 30.2026 20.6667C29.937 20.5418 29.6715 20.4324 29.406 20.3075C29.2498 20.245 29.0936 20.1669 28.9374 20.0888L27.9065 19.6202C27.7347 19.5421 27.5628 19.464 27.3754 19.3859L26.6257 19.0579C26.4695 18.9954 26.3133 18.9173 26.1571 18.8392L25.1262 18.3706C24.9543 18.2925 24.7825 18.2144 24.5951 18.1363L23.8453 17.8083C23.6735 17.7302 23.5173 17.6521 23.3455 17.574C23.0487 17.4334 22.752 17.2929 22.4396 17.1679C22.4864 17.1523 22.4708 17.1523 22.4708 17.1523Z" fill="#C5C8D9"/>
</g>
<defs>
<clipPath id="clip0_46_481">
<rect width="44" height="44" fill="white"/>
</clipPath>
</defs>
</svg>
