<svg width="215" height="93" viewBox="0 0 215 93" fill="none" xmlns="http://www.w3.org/2000/svg">
<path d="M4.716 85H6.282V79.402L10.35 72.13H8.784L5.544 78.106L2.178 72.13H0.414L4.716 79.384V85ZM14.9282 83.92C13.0202 83.92 11.8502 82.516 11.8502 80.374V80.23C11.8502 78.07 13.0382 76.666 14.9282 76.666C16.8002 76.666 18.0062 78.07 18.0062 80.248V80.374C18.0062 82.498 16.8182 83.92 14.9282 83.92ZM14.9102 85.162C17.5922 85.162 19.5542 83.2 19.5542 80.356V80.212C19.5542 77.386 17.5922 75.424 14.9282 75.424C12.2642 75.424 10.3022 77.404 10.3022 80.23V80.374C10.3022 83.128 12.2282 85.162 14.9102 85.162ZM25.0535 85.162C26.5655 85.162 27.6095 84.388 28.0415 83.506V85H29.5355V75.586H28.0415V81.292C28.0415 82.984 26.7815 83.866 25.4495 83.866C23.9735 83.866 23.2715 83.128 23.2715 81.472V75.586H21.7775V81.544C21.7775 84.136 23.1815 85.162 25.0535 85.162ZM32.555 85H34.049V79.834C34.049 77.512 35.255 76.918 37.145 76.828V75.424C35.453 75.478 34.643 76.216 34.049 77.278V75.586H32.555V85ZM48.7662 85.162C51.3582 85.162 53.0502 83.182 53.0502 80.302V80.158C53.0502 77.224 51.2322 75.424 48.7662 75.424C47.3982 75.424 46.1202 76.252 45.5802 77.17V71.086H44.0862V85H45.5802V83.452C46.1202 84.388 47.2362 85.162 48.7662 85.162ZM48.6222 83.92C46.7862 83.92 45.5262 82.786 45.5262 80.374V80.23C45.5262 77.818 46.8582 76.666 48.6042 76.666C50.1882 76.666 51.5022 77.854 51.5022 80.23V80.374C51.5022 82.66 50.4942 83.92 48.6222 83.92ZM59.2234 85.162C61.3474 85.162 62.9134 84.172 63.2374 82.282H61.7434C61.5454 83.38 60.6994 83.92 59.2414 83.92C57.3154 83.92 56.2894 82.732 56.2174 80.59H63.3094V80.104C63.3094 76.738 61.2574 75.424 59.0794 75.424C56.4874 75.424 54.6694 77.404 54.6694 80.248V80.392C54.6694 83.29 56.5594 85.162 59.2234 85.162ZM56.2714 79.384C56.5234 77.71 57.5494 76.666 59.0794 76.666C60.6274 76.666 61.6354 77.44 61.7794 79.384H56.2714ZM68.6057 85.162C70.8917 85.162 72.0617 84.01 72.0617 82.3C72.0617 80.302 70.6937 79.87 68.7497 79.51C67.0217 79.204 66.5537 78.862 66.5537 78.016C66.5537 77.206 67.2557 76.666 68.3357 76.666C69.5237 76.666 70.0997 77.116 70.3157 78.142H71.7557C71.5037 76.108 70.0457 75.424 68.3537 75.424C66.8777 75.424 65.1677 76.324 65.1677 78.07C65.1677 79.708 65.9957 80.392 68.4437 80.842C69.9017 81.112 70.6397 81.436 70.6397 82.426C70.6397 83.434 70.0097 83.92 68.5877 83.92C67.0757 83.92 66.4817 83.218 66.3737 82.102H64.9157C65.0057 84.028 66.3557 85.162 68.6057 85.162ZM77.2002 85.126C77.8122 85.126 78.1722 85.036 78.4782 84.928V83.668C78.1542 83.794 77.7942 83.866 77.3262 83.866C76.5702 83.866 76.1562 83.416 76.1562 82.498V76.846H78.3522V75.586H76.1562V73.444H74.6622V75.586H73.3122V76.846H74.6622V82.642C74.6622 84.118 75.4902 85.126 77.2002 85.126ZM89.4063 85.162C91.6743 85.162 93.3123 83.65 93.5103 81.616H92.1243C91.9623 83.146 90.7563 83.92 89.4243 83.92C87.6063 83.92 86.3463 82.696 86.3463 80.392V80.248C86.3463 78.034 87.6603 76.666 89.3703 76.666C90.6663 76.666 91.7463 77.224 91.9803 78.718H93.4563C93.1683 76.324 91.3323 75.424 89.3703 75.424C86.8503 75.424 84.7983 77.368 84.7983 80.248V80.392C84.7983 83.308 86.7783 85.162 89.4063 85.162ZM95.7659 85H97.2599V79.834C97.2599 77.512 98.4659 76.918 100.356 76.828V75.424C98.6639 75.478 97.8539 76.216 97.2599 77.278V75.586H95.7659V85ZM103.467 88.276H104.979L110.181 75.586H108.651L106.041 82.336L103.161 75.586H101.559L105.249 84.028L103.467 88.276ZM112.149 88.276H113.643V83.452C114.183 84.388 115.281 85.162 116.829 85.162C119.421 85.162 121.113 83.182 121.113 80.302V80.158C121.113 77.224 119.295 75.424 116.829 75.424C115.461 75.424 114.183 76.252 113.643 77.17V75.586H112.149V88.276ZM116.685 83.92C114.849 83.92 113.589 82.786 113.589 80.374V80.23C113.589 77.818 114.921 76.666 116.667 76.666C118.251 76.666 119.565 77.854 119.565 80.23V80.374C119.565 82.66 118.557 83.92 116.685 83.92ZM126.296 85.126C126.908 85.126 127.268 85.036 127.574 84.928V83.668C127.25 83.794 126.89 83.866 126.422 83.866C125.666 83.866 125.252 83.416 125.252 82.498V76.846H127.448V75.586H125.252V73.444H123.758V75.586H122.408V76.846H123.758V82.642C123.758 84.118 124.586 85.126 126.296 85.126ZM133.756 83.92C131.848 83.92 130.678 82.516 130.678 80.374V80.23C130.678 78.07 131.866 76.666 133.756 76.666C135.628 76.666 136.834 78.07 136.834 80.248V80.374C136.834 82.498 135.646 83.92 133.756 83.92ZM133.738 85.162C136.42 85.162 138.382 83.2 138.382 80.356V80.212C138.382 77.386 136.42 75.424 133.756 75.424C131.092 75.424 129.13 77.404 129.13 80.23V80.374C129.13 83.128 131.056 85.162 133.738 85.162ZM145.459 88.276H146.953V83.452C147.493 84.388 148.591 85.162 150.139 85.162C152.731 85.162 154.423 83.182 154.423 80.302V80.158C154.423 77.224 152.605 75.424 150.139 75.424C148.771 75.424 147.493 76.252 146.953 77.17V75.586H145.459V88.276ZM149.995 83.92C148.159 83.92 146.899 82.786 146.899 80.374V80.23C146.899 77.818 148.231 76.666 149.977 76.666C151.561 76.666 152.875 77.854 152.875 80.23V80.374C152.875 82.66 151.867 83.92 149.995 83.92ZM159.102 85.162C160.488 85.162 161.334 84.694 162.036 83.812V85H163.53V78.79C163.53 76.162 161.892 75.424 160.092 75.424C158.274 75.424 156.564 76.216 156.366 78.358H157.86C158.004 77.206 158.724 76.666 160.02 76.666C161.46 76.666 162.036 77.296 162.036 78.79V79.474H160.686C158.274 79.474 155.97 80.212 155.97 82.39C155.97 84.316 157.356 85.162 159.102 85.162ZM159.246 83.974C157.932 83.974 157.464 83.362 157.464 82.39C157.464 81.004 158.85 80.536 160.74 80.536H162.036V81.706C162.036 83.164 160.83 83.974 159.246 83.974ZM166.465 85H167.959V79.834C167.959 77.512 169.165 76.918 171.055 76.828V75.424C169.363 75.478 168.553 76.216 167.959 77.278V75.586H166.465V85ZM176.183 85.126C176.795 85.126 177.155 85.036 177.461 84.928V83.668C177.137 83.794 176.777 83.866 176.309 83.866C175.553 83.866 175.139 83.416 175.139 82.498V76.846H177.335V75.586H175.139V73.444H173.645V75.586H172.295V76.846H173.645V82.642C173.645 84.118 174.473 85.126 176.183 85.126ZM179.719 85H181.213V79.294C181.213 77.602 182.455 76.72 183.841 76.72C185.353 76.72 186.055 77.458 186.055 79.114V85H187.549V79.222C187.549 76.486 186.181 75.424 184.237 75.424C182.689 75.424 181.645 76.198 181.213 77.08V75.586H179.719V85ZM194.329 85.162C196.453 85.162 198.019 84.172 198.343 82.282H196.849C196.651 83.38 195.805 83.92 194.347 83.92C192.421 83.92 191.395 82.732 191.323 80.59H198.415V80.104C198.415 76.738 196.363 75.424 194.185 75.424C191.593 75.424 189.775 77.404 189.775 80.248V80.392C189.775 83.29 191.665 85.162 194.329 85.162ZM191.377 79.384C191.629 77.71 192.655 76.666 194.185 76.666C195.733 76.666 196.741 77.44 196.885 79.384H191.377ZM200.707 85H202.201V79.834C202.201 77.512 203.407 76.918 205.297 76.828V75.424C203.605 75.478 202.795 76.216 202.201 77.278V75.586H200.707V85ZM207.429 85.09C208.059 85.09 208.581 84.586 208.581 83.938C208.581 83.29 208.059 82.786 207.429 82.786C206.799 82.786 206.277 83.29 206.277 83.938C206.277 84.586 206.799 85.09 207.429 85.09Z" fill="white"/>
<path d="M17.514 39.798C14.742 39.798 12.362 39.322 10.374 38.37C8.386 37.39 6.762 36.116 5.502 34.548C4.242 32.952 3.304 31.244 2.688 29.424C2.1 27.576 1.806 25.784 1.806 24.048V23.124C1.806 21.22 2.114 19.344 2.73 17.496C3.346 15.62 4.284 13.926 5.544 12.414C6.832 10.902 8.442 9.698 10.374 8.802C12.334 7.878 14.644 7.416 17.304 7.416C20.076 7.416 22.526 7.934 24.654 8.97C26.782 10.006 28.476 11.448 29.736 13.296C31.024 15.116 31.78 17.258 32.004 19.722H25.074C24.878 18.49 24.43 17.44 23.73 16.572C23.03 15.704 22.12 15.032 21 14.556C19.908 14.08 18.676 13.842 17.304 13.842C15.932 13.842 14.714 14.08 13.65 14.556C12.586 15.032 11.69 15.704 10.962 16.572C10.262 17.44 9.716 18.476 9.324 19.68C8.96 20.856 8.778 22.172 8.778 23.628C8.778 25.056 8.96 26.372 9.324 27.576C9.716 28.752 10.276 29.788 11.004 30.684C11.76 31.552 12.684 32.224 13.776 32.7C14.868 33.148 16.114 33.372 17.514 33.372C19.642 33.372 21.434 32.854 22.89 31.818C24.374 30.782 25.27 29.354 25.578 27.534H32.466C32.214 29.774 31.458 31.832 30.198 33.708C28.966 35.556 27.272 37.04 25.116 38.16C22.988 39.252 20.454 39.798 17.514 39.798ZM36.6578 39V15.984H41.9918V25.854H41.8658C41.8658 22.606 42.5518 20.1 43.9238 18.336C45.3238 16.572 47.3398 15.69 49.9718 15.69H50.8538V21.486H49.1738C47.3258 21.486 45.8978 21.99 44.8898 22.998C43.8818 23.978 43.3778 25.406 43.3778 27.282V39H36.6578ZM54.7398 48.114V42.402H59.5278C60.2558 42.402 60.8718 42.304 61.3758 42.108C61.8798 41.94 62.2858 41.646 62.5938 41.226C62.9018 40.806 63.1538 40.232 63.3498 39.504L69.0198 15.984H75.4038L68.9778 40.848C68.5298 42.64 67.8998 44.068 67.0878 45.132C66.3038 46.196 65.2398 46.952 63.8958 47.4C62.5798 47.876 60.8998 48.114 58.8558 48.114H54.7398ZM61.9638 38.496V33.246H66.8358V38.496H61.9638ZM59.1918 38.496L52.1358 15.984H58.8978L65.5758 38.496H59.1918ZM78.9449 47.4V15.984H84.2789V25.938L83.5649 25.896C83.6769 23.6 84.1529 21.668 84.9929 20.1C85.8329 18.504 86.9669 17.314 88.3949 16.53C89.8229 15.718 91.4329 15.312 93.2249 15.312C94.8209 15.312 96.2629 15.606 97.5509 16.194C98.8669 16.782 99.9869 17.608 100.911 18.672C101.863 19.708 102.577 20.94 103.053 22.368C103.557 23.768 103.809 25.308 103.809 26.988V27.954C103.809 29.606 103.571 31.16 103.095 32.616C102.619 34.044 101.919 35.29 100.995 36.354C100.099 37.418 98.9929 38.258 97.6769 38.874C96.3889 39.462 94.9049 39.756 93.2249 39.756C91.4889 39.756 89.9209 39.406 88.5209 38.706C87.1489 37.978 86.0429 36.886 85.2029 35.43C84.3629 33.946 83.9009 32.07 83.8169 29.802L85.6649 32.322V47.4H78.9449ZM91.3349 34.128C92.4829 34.128 93.4769 33.848 94.3169 33.288C95.1849 32.728 95.8569 31.944 96.3329 30.936C96.8089 29.928 97.0469 28.766 97.0469 27.45C97.0469 26.134 96.8089 24.986 96.3329 24.006C95.8569 23.026 95.1989 22.27 94.3589 21.738C93.5189 21.178 92.5109 20.898 91.3349 20.898C90.3269 20.898 89.3749 21.136 88.4789 21.612C87.5829 22.088 86.8549 22.774 86.2949 23.67C85.7629 24.538 85.4969 25.602 85.4969 26.862V28.416C85.4969 29.62 85.7769 30.656 86.3369 31.524C86.9249 32.364 87.6669 33.008 88.5629 33.456C89.4589 33.904 90.3829 34.128 91.3349 34.128ZM118.934 39.294C116.61 39.294 114.734 39.014 113.306 38.454C111.878 37.866 110.828 36.9 110.156 35.556C109.512 34.184 109.19 32.336 109.19 30.012V9.768H115.448V30.264C115.448 31.356 115.728 32.196 116.288 32.784C116.876 33.344 117.702 33.624 118.766 33.624H122.168V39.294H118.934ZM105.704 20.898V15.984H122.168V20.898H105.704ZM137.819 39.798C135.803 39.798 134.011 39.49 132.443 38.874C130.875 38.23 129.545 37.362 128.453 36.27C127.389 35.178 126.577 33.932 126.017 32.532C125.457 31.104 125.177 29.606 125.177 28.038V27.072C125.177 25.476 125.457 23.964 126.017 22.536C126.605 21.08 127.445 19.806 128.537 18.714C129.657 17.622 131.001 16.768 132.569 16.152C134.137 15.508 135.887 15.186 137.819 15.186C139.807 15.186 141.571 15.508 143.111 16.152C144.679 16.768 146.009 17.622 147.101 18.714C148.193 19.806 149.033 21.08 149.621 22.536C150.209 23.964 150.503 25.476 150.503 27.072V28.038C150.503 29.606 150.223 31.104 149.663 32.532C149.103 33.932 148.277 35.178 147.185 36.27C146.121 37.362 144.805 38.23 143.237 38.874C141.669 39.49 139.863 39.798 137.819 39.798ZM137.819 34.128C139.135 34.128 140.227 33.848 141.095 33.288C141.963 32.728 142.621 31.944 143.069 30.936C143.545 29.928 143.783 28.808 143.783 27.576C143.783 26.26 143.545 25.112 143.069 24.132C142.593 23.124 141.907 22.326 141.011 21.738C140.143 21.15 139.079 20.856 137.819 20.856C136.587 20.856 135.523 21.15 134.627 21.738C133.731 22.326 133.045 23.124 132.569 24.132C132.121 25.112 131.897 26.26 131.897 27.576C131.897 28.808 132.121 29.928 132.569 30.936C133.017 31.944 133.689 32.728 134.585 33.288C135.481 33.848 136.559 34.128 137.819 34.128ZM155.487 39V8.34H162.249V39H155.487ZM152.757 13.296V8.34H162.249V13.296H152.757ZM168.735 39V8.34H175.497V39H168.735ZM166.005 13.296V8.34H175.497V13.296H166.005ZM181.437 48.114V42.402H186.225C186.953 42.402 187.569 42.304 188.073 42.108C188.577 41.94 188.983 41.646 189.291 41.226C189.599 40.806 189.851 40.232 190.047 39.504L195.717 15.984H202.101L195.675 40.848C195.227 42.64 194.597 44.068 193.785 45.132C193.001 46.196 191.937 46.952 190.593 47.4C189.277 47.876 187.597 48.114 185.553 48.114H181.437ZM188.661 38.496V33.246H193.533V38.496H188.661ZM185.889 38.496L178.833 15.984H185.595L192.273 38.496H185.889Z" fill="white"/>
<path d="M204.592 39V31.482H211.984V39H204.592Z" fill="url(#paint0_linear_46_595)"/>
<defs>
<linearGradient id="paint0_linear_46_595" x1="220.017" y1="13.1356" x2="13.9404" y2="81.9818" gradientUnits="userSpaceOnUse">
<stop stop-color="#246CF9"/>
<stop offset="0.0001" stop-color="#1E68F6"/>
<stop offset="1" stop-color="#0047D0"/>
</linearGradient>
</defs>
</svg>
