<svg width="33" height="33" viewBox="0 0 33 33" fill="none" xmlns="http://www.w3.org/2000/svg">
<g clip-path="url(#clip0_60_26)">
<path d="M23.8517 21.3907C27.9092 19.3092 30.9851 17.7231 31.2502 17.5997C32.0984 17.1784 32.9742 16.063 31.2502 15.1967C30.6936 14.9242 27.6967 13.3875 23.8517 11.4058L18.5215 16.4353L23.8517 21.3906V21.3907Z" fill="#FFD900"/>
<path d="M18.5213 16.4351L1.54919 32.4167C1.94757 32.466 2.39732 32.3673 2.92757 32.095C4.04082 31.5256 15.8423 25.5041 23.8516 21.3917L18.5213 16.4351Z" fill="#F43249"/>
<path d="M18.5213 16.4351L23.8515 11.4303C23.8515 11.4303 4.12127 1.37006 2.92752 0.776189C2.47777 0.527313 1.97377 0.453386 1.52277 0.527313L18.5213 16.4351Z" fill="#00EE76"/>
<path d="M18.5214 16.437L1.52287 0.529297C0.833 0.678319 0.25 1.24778 0.25 2.41239V30.5356C0.25 31.6015 0.701125 32.3693 1.54925 32.4433L18.5214 16.437Z" fill="#00D3FF"/>
</g>
<defs>
<clipPath id="clip0_60_26">
<rect width="32" height="32" fill="white" transform="translate(0.25 0.5)"/>
</clipPath>
</defs>
</svg>
