<svg width="37" height="38" viewBox="0 0 37 38" fill="none" xmlns="http://www.w3.org/2000/svg">
<path fill-rule="evenodd" clip-rule="evenodd" d="M35.4606 13.8802C34.289 6.669 28.1638 1.30423 20.8611 1.09305C20.5139 1.07944 20.1755 1.20445 19.9205 1.44053C19.6656 1.67661 19.5149 2.00439 19.5018 2.35163V2.35163V2.4691L20.3241 14.7696C20.378 15.5977 21.0899 16.2271 21.9183 16.1792L34.2524 15.357C34.5999 15.3313 34.9229 15.168 35.1497 14.9034C35.3765 14.6389 35.4884 14.2947 35.4606 13.9474V13.8802Z" stroke="#F7931A" stroke-width="2" stroke-linecap="round" stroke-linejoin="round"/>
<path d="M12.3195 8.40957C13.1041 8.22809 13.907 8.62953 14.2326 9.36609C14.3179 9.53933 14.3691 9.72732 14.3836 9.91987C14.5514 12.3028 14.9038 17.5217 15.1052 20.3409C15.1396 20.8488 15.3749 21.322 15.7592 21.6558C16.1434 21.9896 16.6448 22.1566 17.1525 22.1197V22.1197L27.5064 21.482C27.9686 21.4543 28.4218 21.6187 28.7587 21.9365C29.0955 22.2542 29.286 22.6971 29.2852 23.1601V23.1601C28.8656 29.4125 24.3735 34.6394 18.2553 35.9942C12.1371 37.3491 5.85826 34.5074 2.83822 29.0167C1.93668 27.4365 1.36575 25.6894 1.16011 23.8817C1.0722 23.327 1.03848 22.7649 1.05943 22.2036C1.07724 15.5266 5.76653 9.7735 12.3028 8.40957" stroke="#F7931A" stroke-width="2" stroke-linecap="round" stroke-linejoin="round"/>
</svg>
