<svg width="72" height="27" viewBox="0 0 72 27" fill="none" xmlns="http://www.w3.org/2000/svg">
<path d="M5.9916 13.3821C6.0968 13.5771 6.29684 13.6987 6.51441 13.6987H9.90228V20.3881C9.90228 20.7259 10.1701 21 10.5 21C10.8299 21 11.0977 20.7259 11.0977 20.3881V13.6987H14.4856C14.704 13.6987 14.904 13.5771 15.0084 13.3821C15.1144 13.1871 15.1072 12.9489 14.9917 12.7604L11.0061 6.28556C10.8961 6.1077 10.7056 6 10.5 6C10.2944 6 10.1039 6.1077 9.99393 6.28556L6.00834 12.7604C5.94777 12.8599 5.91669 12.9733 5.91669 13.0868C5.91669 13.1879 5.94219 13.2899 5.9916 13.3821Z" fill="#14A611"/>
<path d="M25.9838 20C25.8518 20 25.7438 19.958 25.6598 19.874C25.5758 19.79 25.5338 19.682 25.5338 19.55V18.47C25.5338 18.374 25.5578 18.248 25.6058 18.092C25.6658 17.924 25.7918 17.762 25.9838 17.606L28.3598 15.248C29.2358 14.576 29.9438 14.006 30.4838 13.538C31.0358 13.07 31.4438 12.644 31.7078 12.26C31.9718 11.876 32.1038 11.504 32.1038 11.144C32.1038 10.676 31.9718 10.292 31.7078 9.992C31.4558 9.68 31.0418 9.524 30.4658 9.524C30.0818 9.524 29.7578 9.608 29.4938 9.776C29.2418 9.932 29.0438 10.142 28.8998 10.406C28.7558 10.67 28.6598 10.958 28.6118 11.27C28.5758 11.426 28.4978 11.534 28.3778 11.594C28.2698 11.654 28.1558 11.684 28.0358 11.684H26.1278C26.0078 11.684 25.9118 11.648 25.8398 11.576C25.7678 11.492 25.7318 11.402 25.7318 11.306C25.7438 10.754 25.8578 10.232 26.0738 9.74C26.3018 9.248 26.6198 8.81 27.0278 8.426C27.4358 8.042 27.9278 7.742 28.5038 7.526C29.0798 7.298 29.7338 7.184 30.4658 7.184C31.4738 7.184 32.3198 7.352 33.0038 7.688C33.6878 8.012 34.2038 8.462 34.5518 9.038C34.8998 9.614 35.0738 10.28 35.0738 11.036C35.0738 11.612 34.9538 12.146 34.7138 12.638C34.4858 13.13 34.1498 13.604 33.7058 14.06C33.2618 14.504 32.7338 14.966 32.1218 15.446L29.9978 17.57H34.8938C35.0258 17.57 35.1338 17.612 35.2178 17.696C35.3018 17.78 35.3438 17.888 35.3438 18.02V19.55C35.3438 19.682 35.3018 19.79 35.2178 19.874C35.1338 19.958 35.0258 20 34.8938 20H25.9838ZM37.644 20C37.512 20 37.404 19.958 37.32 19.874C37.236 19.79 37.194 19.682 37.194 19.55V17.534C37.194 17.402 37.236 17.294 37.32 17.21C37.404 17.126 37.512 17.084 37.644 17.084H39.66C39.792 17.084 39.9 17.126 39.984 17.21C40.068 17.294 40.11 17.402 40.11 17.534V19.55C40.11 19.682 40.068 19.79 39.984 19.874C39.9 19.958 39.792 20 39.66 20H37.644ZM44.9508 20C44.8308 20 44.7228 19.958 44.6268 19.874C44.5428 19.79 44.5008 19.682 44.5008 19.55V10.604L41.9088 12.602C41.8008 12.686 41.6868 12.716 41.5668 12.692C41.4588 12.668 41.3628 12.602 41.2788 12.494L40.3788 11.324C40.3068 11.216 40.2768 11.102 40.2888 10.982C40.3128 10.862 40.3788 10.766 40.4868 10.694L44.5908 7.526C44.6628 7.478 44.7288 7.448 44.7888 7.436C44.8608 7.412 44.9388 7.4 45.0228 7.4H46.9308C47.0508 7.4 47.1528 7.442 47.2368 7.526C47.3208 7.61 47.3628 7.718 47.3628 7.85V19.55C47.3628 19.682 47.3208 19.79 47.2368 19.874C47.1528 19.958 47.0508 20 46.9308 20H44.9508ZM53.5641 20C53.4441 20 53.3361 19.958 53.2401 19.874C53.1561 19.79 53.1141 19.682 53.1141 19.55V10.604L50.5221 12.602C50.4141 12.686 50.3001 12.716 50.1801 12.692C50.0721 12.668 49.9761 12.602 49.8921 12.494L48.9921 11.324C48.9201 11.216 48.8901 11.102 48.9021 10.982C48.9261 10.862 48.9921 10.766 49.1001 10.694L53.2041 7.526C53.2761 7.478 53.3421 7.448 53.4021 7.436C53.4741 7.412 53.5521 7.4 53.6361 7.4H55.5441C55.6641 7.4 55.7661 7.442 55.8501 7.526C55.9341 7.61 55.9761 7.718 55.9761 7.85V19.55C55.9761 19.682 55.9341 19.79 55.8501 19.874C55.7661 19.958 55.6641 20 55.5441 20H53.5641ZM59.1894 20C58.9254 20 58.7934 19.88 58.7934 19.64C58.7934 19.568 58.8174 19.502 58.8654 19.442L67.7574 7.742C67.8414 7.634 67.9254 7.55 68.0094 7.49C68.0934 7.43 68.2134 7.4 68.3694 7.4H69.4854C69.7494 7.4 69.8814 7.52 69.8814 7.76C69.8814 7.832 69.8574 7.898 69.8094 7.958L60.9174 19.658C60.8334 19.766 60.7494 19.85 60.6654 19.91C60.5934 19.97 60.4734 20 60.3054 20H59.1894ZM68.0454 20.09C67.2294 20.09 66.5814 19.874 66.1014 19.442C65.6334 19.01 65.3754 18.434 65.3274 17.714C65.3034 17.402 65.2914 17.126 65.2914 16.886C65.3034 16.646 65.3154 16.358 65.3274 16.022C65.3634 15.302 65.6094 14.72 66.0654 14.276C66.5334 13.832 67.1934 13.61 68.0454 13.61C68.8974 13.61 69.5514 13.832 70.0074 14.276C70.4754 14.72 70.7274 15.302 70.7634 16.022C70.7874 16.358 70.7994 16.646 70.7994 16.886C70.7994 17.126 70.7874 17.402 70.7634 17.714C70.7274 18.434 70.4634 19.01 69.9714 19.442C69.4914 19.874 68.8494 20.09 68.0454 20.09ZM68.0454 18.614C68.2734 18.614 68.4534 18.566 68.5854 18.47C68.7174 18.374 68.8134 18.248 68.8734 18.092C68.9454 17.936 68.9874 17.774 68.9994 17.606C69.0234 17.33 69.0354 17.084 69.0354 16.868C69.0354 16.64 69.0234 16.388 68.9994 16.112C68.9874 15.86 68.9094 15.632 68.7654 15.428C68.6214 15.224 68.3814 15.122 68.0454 15.122C67.7094 15.122 67.4694 15.224 67.3254 15.428C67.1934 15.632 67.1154 15.86 67.0914 16.112C67.0794 16.388 67.0734 16.64 67.0734 16.868C67.0734 17.084 67.0794 17.33 67.0914 17.606C67.1154 17.774 67.1514 17.936 67.1994 18.092C67.2594 18.248 67.3554 18.374 67.4874 18.47C67.6314 18.566 67.8174 18.614 68.0454 18.614ZM60.6474 13.754C59.8314 13.754 59.1834 13.544 58.7034 13.124C58.2354 12.692 57.9774 12.116 57.9294 11.396C57.9054 11.084 57.8934 10.814 57.8934 10.586C57.9054 10.346 57.9174 10.058 57.9294 9.722C57.9654 8.99 58.2114 8.408 58.6674 7.976C59.1354 7.532 59.7954 7.31 60.6474 7.31C61.5114 7.31 62.1714 7.532 62.6274 7.976C63.0834 8.408 63.3294 8.99 63.3654 9.722C63.3894 10.058 63.4014 10.346 63.4014 10.586C63.4014 10.814 63.3894 11.084 63.3654 11.396C63.3294 12.116 63.0714 12.692 62.5914 13.124C62.1114 13.544 61.4634 13.754 60.6474 13.754ZM60.6474 12.296C60.8754 12.296 61.0554 12.248 61.1874 12.152C61.3194 12.056 61.4154 11.93 61.4754 11.774C61.5474 11.618 61.5894 11.462 61.6014 11.306C61.6254 11.018 61.6374 10.766 61.6374 10.55C61.6374 10.322 61.6254 10.076 61.6014 9.812C61.5894 9.56 61.5114 9.332 61.3674 9.128C61.2234 8.912 60.9834 8.804 60.6474 8.804C60.3114 8.804 60.0714 8.912 59.9274 9.128C59.7954 9.332 59.7174 9.56 59.6934 9.812C59.6814 10.076 59.6754 10.322 59.6754 10.55C59.6754 10.766 59.6814 11.018 59.6934 11.306C59.7174 11.462 59.7594 11.618 59.8194 11.774C59.8794 11.93 59.9754 12.056 60.1074 12.152C60.2394 12.248 60.4194 12.296 60.6474 12.296Z" fill="#14A611"/>
</svg>
