<svg width="40" height="41" viewBox="0 0 40 41" fill="none" xmlns="http://www.w3.org/2000/svg">
<path fill-rule="evenodd" clip-rule="evenodd" d="M40 20.0129C40 8.96718 31.0451 0.0129395 20 0.0129395C8.95491 0.0129395 0 8.96718 0 20.0129C0 31.0574 8.95557 40.0129 20 40.0129C31.0444 40.0129 40 31.0574 40 20.0129ZM37 20.0129C37 29.4005 29.3876 37.0129 20 37.0129C10.6124 37.0129 3 29.4005 3 20.0129C3 10.6241 10.6117 3.01294 20 3.01294C29.3883 3.01294 37 10.6241 37 20.0129ZM24.0886 13.9656C24.5255 13.3793 24.4789 12.5458 23.9475 12.0122C23.363 11.4251 22.4133 11.4231 21.8262 12.0076L14.8542 18.9496L14.7082 19.118C14.2703 19.7062 14.3189 20.5425 14.8542 21.0755L21.8262 28.0175L21.9948 28.1624C22.5829 28.5968 23.4162 28.5466 23.9475 28.0129L24.0924 27.8444C24.5269 27.2562 24.4767 26.423 23.943 25.8916L18.04 20.0105L23.943 14.1335L24.0886 13.9656Z" fill="white"/>
</svg>
