<svg width="44" height="44" viewBox="0 0 44 44" fill="none" xmlns="http://www.w3.org/2000/svg">
<g clip-path="url(#clip0_89_235)">
<path d="M22 0C34.1503 0 44 9.84971 44 22C44 34.1503 34.1503 44 22 44C9.84971 44 0 34.1503 0 22C0 9.84971 9.84971 0 22 0Z" fill="#1A82FF"/>
<path d="M30.0431 31.059C28.1385 33.3923 25.46 34.5589 22.0074 34.5589C18.5549 34.5589 15.8759 33.3923 13.9705 31.059C12.0647 28.7245 11.1122 25.7069 11.113 22.0063C11.1139 18.3057 12.066 15.2886 13.9693 12.9549C15.8738 10.6204 18.5528 9.45332 22.0062 9.45374C25.4596 9.45415 28.1381 10.6212 30.0418 12.9549C31.9464 15.2881 32.8989 18.3053 32.8993 22.0063C32.8997 25.7073 31.9477 28.7249 30.0431 31.059Z" fill="white"/>
<path d="M21.9673 29.6799C22.8762 29.6799 23.6489 29.4322 24.2855 28.9369C24.922 28.4416 25.383 27.7699 25.6683 26.9217C25.9533 26.0731 26.1544 25.2598 26.2718 24.4816C26.3891 23.7034 26.4473 22.8783 26.4465 22.0063C26.4465 20.9327 26.3815 19.9718 26.2516 19.1237L18.4209 27.2838C19.145 28.8803 20.3271 29.679 21.9673 29.6799Z" fill="#1A82FF"/>
<path d="M22.0452 14.3327C21.1363 14.3327 20.3636 14.5804 19.7271 15.0757C19.0905 15.571 18.6296 16.2427 18.3442 17.0908C18.0576 17.9394 17.8564 18.7527 17.7408 19.5309C17.6235 20.309 17.5652 21.1341 17.566 22.0061C17.566 22.5806 17.5845 23.1229 17.6214 23.6328L25.0901 15.8513C24.3647 14.8393 23.3497 14.3331 22.0452 14.3327Z" fill="#1A82FF"/>
<path d="M11.7216 29.7855L10.7599 28.8628L18.0526 21.2608L19.0143 22.1836L11.7216 29.7855ZM25.4622 21.8529L24.5005 20.9302L31.7931 13.3282L32.7549 14.251L25.4622 21.8529Z" fill="#1A82FF"/>
</g>
<defs>
<clipPath id="clip0_89_235">
<rect width="44" height="44" fill="white"/>
</clipPath>
</defs>
</svg>
