<svg width="40" height="41" viewBox="0 0 40 41" fill="none" xmlns="http://www.w3.org/2000/svg">
<path fill-rule="evenodd" clip-rule="evenodd" d="M0 20.012C0 31.0577 8.95491 40.012 20 40.012C31.0451 40.012 40 31.0577 40 20.012C40 8.96754 31.0444 0.0119629 20 0.0119629C8.95557 0.0119629 0 8.96754 0 20.012ZM3 20.012C3 10.6244 10.6124 3.01196 20 3.01196C29.3876 3.01196 37 10.6244 37 20.012C37 29.4008 29.3883 37.012 20 37.012C10.6117 37.012 3 29.4008 3 20.012ZM15.9114 26.0593C15.4745 26.6456 15.5211 27.4791 16.0525 28.0127C16.637 28.5998 17.5867 28.6018 18.1738 28.0173L25.1458 21.0753L25.2918 20.9069C25.7297 20.3187 25.6811 19.4824 25.1458 18.9494L18.1738 12.0074L18.0052 11.8625C17.4171 11.4281 16.5838 11.4783 16.0525 12.012L15.9076 12.1805C15.4731 12.7687 15.5233 13.6019 16.057 14.1333L21.96 20.0144L16.057 25.8914L15.9114 26.0593Z" fill="white"/>
</svg>
