<svg width="45" height="44" viewBox="0 0 45 44" fill="none" xmlns="http://www.w3.org/2000/svg">
<path fill-rule="evenodd" clip-rule="evenodd" d="M35.0859 9.39353C35.887 9.67403 36.4224 10.4294 36.4224 11.2782V23.6954C36.4224 27.1659 35.161 30.4787 32.9335 33.0454C31.8134 34.3379 30.3962 35.3444 28.891 36.1584L22.368 39.682L15.834 36.1565C14.327 35.3425 12.908 34.3379 11.786 33.0435C9.55669 30.4769 8.29169 27.1622 8.29169 23.688V11.2782C8.29169 10.4294 8.82702 9.67403 9.62819 9.39353L21.6952 5.15303C22.1242 5.0027 22.5917 5.0027 23.0189 5.15303L35.0859 9.39353Z" stroke="#14A611" stroke-width="1.5" stroke-linecap="round" stroke-linejoin="round"/>
<path d="M17.5912 21.8489L21.0599 25.3194L28.2062 18.1731" stroke="#14A611" stroke-width="1.5" stroke-linecap="round" stroke-linejoin="round"/>
</svg>
