<svg width="72" height="27" viewBox="0 0 72 27" fill="none" xmlns="http://www.w3.org/2000/svg">
<path d="M5.4916 13.3821C5.5968 13.5771 5.79684 13.6987 6.01441 13.6987H9.40228V20.3881C9.40228 20.7259 9.67006 21 10 21C10.3299 21 10.5977 20.7259 10.5977 20.3881V13.6987H13.9856C14.204 13.6987 14.404 13.5771 14.5084 13.3821C14.6144 13.1871 14.6072 12.9489 14.4917 12.7604L10.5061 6.28556C10.3961 6.1077 10.2056 6 10 6C9.79438 6 9.60391 6.1077 9.49393 6.28556L5.50834 12.7604C5.44777 12.8599 5.41669 12.9733 5.41669 13.0868C5.41669 13.1879 5.44219 13.2899 5.4916 13.3821Z" fill="#14A611"/>
<path d="M30.8147 20.18C29.9507 20.18 29.2067 20.06 28.5827 19.82C27.9707 19.568 27.4607 19.226 27.0527 18.794C26.6567 18.35 26.3567 17.84 26.1527 17.264C25.9607 16.676 25.8467 16.052 25.8107 15.392C25.7987 15.068 25.7867 14.708 25.7747 14.312C25.7747 13.904 25.7747 13.496 25.7747 13.088C25.7867 12.68 25.7987 12.308 25.8107 11.972C25.8347 11.312 25.9487 10.694 26.1527 10.118C26.3687 9.542 26.6807 9.038 27.0887 8.606C27.4967 8.174 28.0067 7.838 28.6187 7.598C29.2427 7.346 29.9747 7.22 30.8147 7.22C31.6547 7.22 32.3807 7.346 32.9927 7.598C33.6047 7.838 34.1147 8.174 34.5227 8.606C34.9307 9.038 35.2367 9.542 35.4407 10.118C35.6567 10.694 35.7827 11.312 35.8187 11.972C35.8307 12.308 35.8367 12.68 35.8367 13.088C35.8487 13.496 35.8487 13.904 35.8367 14.312C35.8367 14.708 35.8307 15.068 35.8187 15.392C35.7827 16.052 35.6627 16.676 35.4587 17.264C35.2547 17.84 34.9487 18.35 34.5407 18.794C34.1447 19.226 33.6347 19.568 33.0107 19.82C32.3987 20.06 31.6667 20.18 30.8147 20.18ZM30.8147 17.84C31.5107 17.84 32.0207 17.612 32.3447 17.156C32.6687 16.7 32.8427 16.082 32.8667 15.302C32.8787 14.954 32.8847 14.594 32.8847 14.222C32.8967 13.85 32.8967 13.478 32.8847 13.106C32.8847 12.734 32.8787 12.386 32.8667 12.062C32.8427 11.318 32.6687 10.712 32.3447 10.244C32.0207 9.776 31.5107 9.536 30.8147 9.524C30.1067 9.536 29.5907 9.776 29.2667 10.244C28.9547 10.712 28.7867 11.318 28.7627 12.062C28.7507 12.386 28.7387 12.734 28.7267 13.106C28.7267 13.478 28.7267 13.85 28.7267 14.222C28.7387 14.594 28.7507 14.954 28.7627 15.302C28.7867 16.082 28.9607 16.7 29.2847 17.156C29.6087 17.612 30.1187 17.84 30.8147 17.84ZM38.144 20C38.012 20 37.904 19.958 37.82 19.874C37.736 19.79 37.694 19.682 37.694 19.55V17.534C37.694 17.402 37.736 17.294 37.82 17.21C37.904 17.126 38.012 17.084 38.144 17.084H40.16C40.292 17.084 40.4 17.126 40.484 17.21C40.568 17.294 40.61 17.402 40.61 17.534V19.55C40.61 19.682 40.568 19.79 40.484 19.874C40.4 19.958 40.292 20 40.16 20H38.144ZM45.4508 20C45.3308 20 45.2228 19.958 45.1268 19.874C45.0428 19.79 45.0008 19.682 45.0008 19.55V10.604L42.4088 12.602C42.3008 12.686 42.1868 12.716 42.0668 12.692C41.9588 12.668 41.8628 12.602 41.7788 12.494L40.8788 11.324C40.8068 11.216 40.7768 11.102 40.7888 10.982C40.8128 10.862 40.8788 10.766 40.9868 10.694L45.0908 7.526C45.1628 7.478 45.2288 7.448 45.2888 7.436C45.3608 7.412 45.4388 7.4 45.5228 7.4H47.4308C47.5508 7.4 47.6528 7.442 47.7368 7.526C47.8208 7.61 47.8628 7.718 47.8628 7.85V19.55C47.8628 19.682 47.8208 19.79 47.7368 19.874C47.6528 19.958 47.5508 20 47.4308 20H45.4508ZM54.0641 20C53.9441 20 53.8361 19.958 53.7401 19.874C53.6561 19.79 53.6141 19.682 53.6141 19.55V10.604L51.0221 12.602C50.9141 12.686 50.8001 12.716 50.6801 12.692C50.5721 12.668 50.4761 12.602 50.3921 12.494L49.4921 11.324C49.4201 11.216 49.3901 11.102 49.4021 10.982C49.4261 10.862 49.4921 10.766 49.6001 10.694L53.7041 7.526C53.7761 7.478 53.8421 7.448 53.9021 7.436C53.9741 7.412 54.0521 7.4 54.1361 7.4H56.0441C56.1641 7.4 56.2661 7.442 56.3501 7.526C56.4341 7.61 56.4761 7.718 56.4761 7.85V19.55C56.4761 19.682 56.4341 19.79 56.3501 19.874C56.2661 19.958 56.1641 20 56.0441 20H54.0641ZM59.6894 20C59.4254 20 59.2934 19.88 59.2934 19.64C59.2934 19.568 59.3174 19.502 59.3654 19.442L68.2574 7.742C68.3414 7.634 68.4254 7.55 68.5094 7.49C68.5934 7.43 68.7134 7.4 68.8694 7.4H69.9854C70.2494 7.4 70.3814 7.52 70.3814 7.76C70.3814 7.832 70.3574 7.898 70.3094 7.958L61.4174 19.658C61.3334 19.766 61.2494 19.85 61.1654 19.91C61.0934 19.97 60.9734 20 60.8054 20H59.6894ZM68.5454 20.09C67.7294 20.09 67.0814 19.874 66.6014 19.442C66.1334 19.01 65.8754 18.434 65.8274 17.714C65.8034 17.402 65.7914 17.126 65.7914 16.886C65.8034 16.646 65.8154 16.358 65.8274 16.022C65.8634 15.302 66.1094 14.72 66.5654 14.276C67.0334 13.832 67.6934 13.61 68.5454 13.61C69.3974 13.61 70.0514 13.832 70.5074 14.276C70.9754 14.72 71.2274 15.302 71.2634 16.022C71.2874 16.358 71.2994 16.646 71.2994 16.886C71.2994 17.126 71.2874 17.402 71.2634 17.714C71.2274 18.434 70.9634 19.01 70.4714 19.442C69.9914 19.874 69.3494 20.09 68.5454 20.09ZM68.5454 18.614C68.7734 18.614 68.9534 18.566 69.0854 18.47C69.2174 18.374 69.3134 18.248 69.3734 18.092C69.4454 17.936 69.4874 17.774 69.4994 17.606C69.5234 17.33 69.5354 17.084 69.5354 16.868C69.5354 16.64 69.5234 16.388 69.4994 16.112C69.4874 15.86 69.4094 15.632 69.2654 15.428C69.1214 15.224 68.8814 15.122 68.5454 15.122C68.2094 15.122 67.9694 15.224 67.8254 15.428C67.6934 15.632 67.6154 15.86 67.5914 16.112C67.5794 16.388 67.5734 16.64 67.5734 16.868C67.5734 17.084 67.5794 17.33 67.5914 17.606C67.6154 17.774 67.6514 17.936 67.6994 18.092C67.7594 18.248 67.8554 18.374 67.9874 18.47C68.1314 18.566 68.3174 18.614 68.5454 18.614ZM61.1474 13.754C60.3314 13.754 59.6834 13.544 59.2034 13.124C58.7354 12.692 58.4774 12.116 58.4294 11.396C58.4054 11.084 58.3934 10.814 58.3934 10.586C58.4054 10.346 58.4174 10.058 58.4294 9.722C58.4654 8.99 58.7114 8.408 59.1674 7.976C59.6354 7.532 60.2954 7.31 61.1474 7.31C62.0114 7.31 62.6714 7.532 63.1274 7.976C63.5834 8.408 63.8294 8.99 63.8654 9.722C63.8894 10.058 63.9014 10.346 63.9014 10.586C63.9014 10.814 63.8894 11.084 63.8654 11.396C63.8294 12.116 63.5714 12.692 63.0914 13.124C62.6114 13.544 61.9634 13.754 61.1474 13.754ZM61.1474 12.296C61.3754 12.296 61.5554 12.248 61.6874 12.152C61.8194 12.056 61.9154 11.93 61.9754 11.774C62.0474 11.618 62.0894 11.462 62.1014 11.306C62.1254 11.018 62.1374 10.766 62.1374 10.55C62.1374 10.322 62.1254 10.076 62.1014 9.812C62.0894 9.56 62.0114 9.332 61.8674 9.128C61.7234 8.912 61.4834 8.804 61.1474 8.804C60.8114 8.804 60.5714 8.912 60.4274 9.128C60.2954 9.332 60.2174 9.56 60.1934 9.812C60.1814 10.076 60.1754 10.322 60.1754 10.55C60.1754 10.766 60.1814 11.018 60.1934 11.306C60.2174 11.462 60.2594 11.618 60.3194 11.774C60.3794 11.93 60.4754 12.056 60.6074 12.152C60.7394 12.248 60.9194 12.296 61.1474 12.296Z" fill="#14A611"/>
</svg>
