<svg width="45" height="44" viewBox="0 0 45 44" fill="none" xmlns="http://www.w3.org/2000/svg">
<path d="M32.7573 20.0417C35.6949 20.0417 38.078 17.6604 38.078 14.7228C38.078 11.7852 35.6949 9.40381 32.7573 9.40381" stroke="#BD47FB" stroke-width="1.5" stroke-linecap="round" stroke-linejoin="round"/>
<path d="M35.2034 25.822C36.0806 25.8825 36.9528 26.0069 37.8116 26.2001C39.0048 26.4337 40.44 26.9228 40.9509 27.9933C41.2769 28.679 41.2769 29.4772 40.9509 30.1646C40.4417 31.2351 39.0048 31.7225 37.8116 31.9678" stroke="#BD47FB" stroke-width="1.5" stroke-linecap="round" stroke-linejoin="round"/>
<path d="M12.0317 20.0417C9.09409 20.0417 6.71106 17.6604 6.71106 14.7228C6.71106 11.7852 9.09409 9.40381 12.0317 9.40381" stroke="#BD47FB" stroke-width="1.5" stroke-linecap="round" stroke-linejoin="round"/>
<path d="M9.58559 25.822C8.70834 25.8825 7.83614 26.0069 6.97737 26.2001C5.78418 26.4337 4.34898 26.9228 3.83978 27.9933C3.51207 28.679 3.51207 29.4772 3.83978 30.1646C4.3473 31.2351 5.78418 31.7225 6.97737 31.9678" stroke="#BD47FB" stroke-width="1.5" stroke-linecap="round" stroke-linejoin="round"/>
<path fill-rule="evenodd" clip-rule="evenodd" d="M22.3859 26.9675C28.3384 26.9675 33.4238 27.8683 33.4238 31.4731C33.4238 35.0762 28.372 36.0106 22.3859 36.0106C16.4317 36.0106 11.348 35.1098 11.348 31.505C11.348 27.9002 16.3998 26.9675 22.3859 26.9675Z" stroke="#BD47FB" stroke-width="1.5" stroke-linecap="round" stroke-linejoin="round"/>
<path fill-rule="evenodd" clip-rule="evenodd" d="M22.3858 21.8256C18.4601 21.8256 15.3124 18.6779 15.3124 14.7505C15.3124 10.8247 18.4601 7.677 22.3858 7.677C26.3116 7.677 29.4593 10.8247 29.4593 14.7505C29.4593 18.6779 26.3116 21.8256 22.3858 21.8256Z" stroke="#BD47FB" stroke-width="1.5" stroke-linecap="round" stroke-linejoin="round"/>
</svg>
