<svg width="354" height="480" viewBox="0 0 354 480" fill="none" xmlns="http://www.w3.org/2000/svg">
<rect x="353.906" y="428.465" width="278" height="436" rx="12" transform="rotate(169.332 353.906 428.465)" fill="url(#paint0_linear_0_5173)" fill-opacity="0.6"/>
<mask id="mask0_0_5173" style="mask-type:alpha" maskUnits="userSpaceOnUse" x="2" y="2" width="350" height="476">
<rect x="353.906" y="428.465" width="278" height="436" rx="12" transform="rotate(169.332 353.906 428.465)" fill="url(#paint1_linear_0_5173)"/>
</mask>
<g mask="url(#mask0_0_5173)">
<path fill-rule="evenodd" clip-rule="evenodd" d="M110.471 374.55C105.125 373.645 100.999 372.71 101.303 372.472C101.606 372.235 104.945 370.824 108.723 369.338C112.501 367.852 116.031 366.233 116.568 365.741C117.505 364.882 117.493 364.579 116.248 358.106L114.952 351.366L114.374 354.528C114.056 356.267 113.707 358.086 113.599 358.57C113.484 359.085 112.204 360.025 110.518 360.831C108.932 361.59 103.855 364.024 99.2356 366.24L90.8365 370.27L91.3808 373.938L91.9251 377.605L105.831 380.424C113.479 381.974 120.151 383.313 120.657 383.398C121.481 383.537 121.505 383.171 120.884 379.875L120.191 376.197L110.471 374.55ZM120.471 386.461C119.563 386.473 113.923 386.612 107.937 386.771C101.95 386.93 96.3103 387.072 95.4034 387.086L93.7547 387.113L94.4051 390.565C95.0036 393.742 95.1472 394.021 96.2089 394.064C97.6746 394.123 122.36 393.473 122.96 393.36C123.207 393.313 123.118 391.737 122.764 389.858L122.121 386.441L120.471 386.461ZM124.41 402.563C122.222 398.817 117.58 396.912 114.019 398.3C112.048 399.068 109.959 402.212 108.824 406.117C107.735 409.862 105.916 410.845 104.18 408.625C102.801 406.861 102.311 403.895 102.877 400.732L103.345 398.118L101.008 398.238C99.7231 398.304 98.2938 398.328 97.8324 398.29C96.6907 398.199 96.5051 401.713 97.4001 406.465C98.5252 412.437 101.012 415.635 105.316 416.644C110.181 417.784 113.003 415.559 115.258 408.802C116.516 405.032 117.767 404.184 119.466 405.95C120.528 407.054 121.176 410.576 120.84 413.426C120.697 414.637 120.99 414.737 124.516 414.669C126.238 414.637 126.445 414.501 126.667 413.258C127.023 411.271 125.623 404.64 124.41 402.563ZM129.22 425.941C128.992 425.384 128.367 424.664 127.832 424.342C127.114 423.909 107.795 419.562 100.234 418.132C99.7417 418.039 99.7513 418.946 100.271 421.705L100.967 425.401L103.186 425.703L105.406 426.005L106.393 430.469L107.38 434.934L106.068 435.497C102.986 436.82 103.083 436.635 103.717 439.999L104.31 443.148L105.847 442.528C106.693 442.188 112.59 439.766 118.952 437.147L130.521 432.385L130.078 429.67C129.834 428.176 129.449 426.498 129.22 425.941ZM116.915 431.059L112.544 432.841L111.991 429.904C111.501 427.302 111.544 426.987 112.363 427.15C112.871 427.251 115.278 427.668 117.71 428.077C120.143 428.486 121.942 428.923 121.709 429.049C121.477 429.174 119.319 430.078 116.915 431.059Z" fill="white"/>
<g opacity="0.6">
<rect x="154.369" y="120.073" width="51" height="67" rx="5" transform="rotate(169.332 154.369 120.073)" fill="url(#paint2_linear_0_5173)" stroke="#2F333C"/>
<rect x="141.509" y="95.02" width="35" height="14" rx="5" transform="rotate(169.332 141.509 95.02)" stroke="#2F333C"/>
<path d="M131.841 55.9995L137.019 83.4893" stroke="#2F333C"/>
<path d="M139.07 94.3781L144.248 121.868" stroke="#2F333C"/>
<path d="M117.08 58.7802L121.972 84.7535" stroke="#2F333C"/>
<path d="M124.587 98.6348L129.48 124.608" stroke="#2F333C"/>
<path d="M102.319 61.5607L107.497 89.0505" stroke="#2F333C"/>
<path d="M109.548 99.9392L114.726 127.429" stroke="#2F333C"/>
</g>
<g filter="url(#filter0_i_0_5173)">
<path d="M163.778 51.7038L170.761 50.3885L170.415 48.5531L171.565 48.3364L172.808 51.8864L164.121 53.5229L163.778 51.7038Z" fill="white"/>
<path d="M172.473 59.746C173.12 59.6241 173.588 59.6738 173.878 59.8952C174.167 60.1166 174.385 60.6162 174.532 61.3938L175.366 65.8233C175.513 66.6009 175.491 67.1455 175.302 67.4571C175.114 67.7741 174.697 67.9935 174.049 68.1154L173.495 68.2199C173.076 68.2988 172.743 68.294 172.495 68.2054C172.249 68.1224 171.927 67.8648 171.53 67.4327L167.501 62.9463L168.444 67.9549L169.717 67.7152L169.568 69.3904L168.883 69.5195C168.235 69.6414 167.767 69.5889 167.476 69.3621C167.187 69.1407 166.969 68.6411 166.822 67.8635L165.456 60.6116L166.239 60.4641C166.62 60.3924 166.928 60.4159 167.165 60.5347C167.402 60.6589 167.687 60.9009 168.02 61.2606L172.814 66.5322L173.939 66.3201L173.014 61.4094L171.236 61.7444L171.355 59.9565L172.473 59.746Z" fill="white"/>
<path d="M168.25 75.4416C168.103 74.664 168.124 74.1166 168.312 73.7997C168.501 73.4881 168.919 73.2714 169.566 73.1495L170.268 73.0173L170.968 74.7183L169.761 74.9457L170.637 79.5954C170.7 79.9271 170.793 80.1377 170.917 80.227C171.041 80.3217 171.259 80.3399 171.569 80.2815L172.197 80.1632C172.512 80.1037 172.711 80.0072 172.793 79.8735C172.88 79.7388 172.893 79.5084 172.831 79.1821L172.283 76.2699L173.686 76.0056L174.175 78.5996C174.236 78.9259 174.329 79.1337 174.452 79.223C174.576 79.3123 174.796 79.3273 175.111 79.2678L175.544 79.1864C175.864 79.126 176.066 79.0316 176.149 78.9034C176.232 78.7752 176.243 78.5479 176.181 78.2216L175.379 73.9635L174.302 74.1663L174.299 72.4015L174.838 72.3001C175.485 72.1782 175.953 72.228 176.243 72.4494C176.532 72.6708 176.75 73.1703 176.897 73.9479L177.776 78.6139C177.922 79.3916 177.901 79.9362 177.712 80.2477C177.523 80.5593 177.104 80.776 176.457 80.8979L175.674 81.0454C175.168 81.1407 174.77 81.089 174.479 80.8904C174.189 80.6918 173.936 80.2917 173.721 79.6902C173.786 80.3932 173.707 80.9317 173.485 81.3058C173.262 81.6799 172.882 81.9177 172.344 82.0191L171.438 82.1897C170.731 82.3229 170.216 82.2623 169.892 82.0079C169.574 81.7526 169.341 81.2333 169.193 80.4502L168.25 75.4416Z" fill="white"/>
<path d="M171.354 92.4599L173.353 92.0834L172.122 85.5494L173.566 85.2775L180.158 90.7254L180.515 92.6179L175.139 93.6305L175.533 95.7188L174.089 95.9908L173.695 93.9025L171.697 94.279L171.354 92.4599ZM174.797 91.8115L178.655 91.0846L173.908 87.0965L174.797 91.8115Z" fill="white"/>
<path d="M177.871 105.398L182.743 104.987L184.146 112.434L182.65 112.564L181.516 106.544L179.807 106.663C180.023 107.388 180.199 108.028 180.338 108.582C180.477 109.141 180.59 109.652 180.677 110.114C180.945 111.539 180.902 112.654 180.547 113.459C180.197 114.262 179.535 114.756 178.562 114.939C177.55 115.13 176.745 114.893 176.147 114.228C175.55 113.569 175.094 112.405 174.78 110.735C174.615 109.86 174.496 109.063 174.422 108.345C174.35 107.632 174.325 107.02 174.347 106.509L175.93 105.763C175.936 106.635 175.971 107.45 176.036 108.21C176.106 108.974 176.207 109.701 176.337 110.391C176.541 111.474 176.79 112.215 177.085 112.616C177.386 113.015 177.789 113.167 178.295 113.072C178.773 112.982 179.075 112.702 179.201 112.234C179.327 111.765 179.293 111.02 179.101 109.997C178.978 109.345 178.813 108.633 178.605 107.861C178.398 107.089 178.153 106.268 177.871 105.398Z" fill="white"/>
<path d="M180.647 119.868C180.575 119.87 180.502 119.875 180.431 119.883C180.359 119.891 180.263 119.906 180.144 119.929C179.312 120.085 178.816 120.291 178.655 120.547C178.501 120.807 178.495 121.312 178.637 122.062L179.09 124.469C179.202 125.062 179.352 125.456 179.541 125.651C179.731 125.852 180.024 125.915 180.421 125.84L180.894 125.751C181.297 125.675 181.544 125.496 181.638 125.214C181.737 124.936 181.715 124.416 181.572 123.655C181.456 123.04 181.319 122.416 181.16 121.781C181.007 121.151 180.837 120.513 180.647 119.868ZM181.974 119.736C182.196 120.375 182.391 121.006 182.559 121.628C182.733 122.254 182.878 122.874 182.994 123.489C183.256 124.881 183.272 125.866 183.043 126.444C182.82 127.021 182.289 127.388 181.452 127.546L180.285 127.766C179.568 127.901 178.992 127.762 178.56 127.348C178.127 126.934 177.815 126.221 177.625 125.209L176.938 121.563C176.733 120.475 176.783 119.695 177.088 119.22C177.393 118.746 178.051 118.414 179.062 118.223L180.196 118.01C181.8 117.708 183.145 118.029 184.229 118.973C185.32 119.922 186.056 121.408 186.437 123.431C186.452 123.507 186.464 123.589 186.475 123.677C186.493 123.77 186.508 123.894 186.52 124.049L185.358 125.501L185.253 124.947C184.908 123.114 184.49 121.821 183.999 121.069C183.514 120.316 182.839 119.872 181.974 119.736Z" fill="white"/>
<path d="M179.216 134.463L187.392 137.737L186.318 132.035L184.458 132.386L184.434 130.507L187.444 129.94L189.248 139.516L187.861 139.778L179.629 136.657L179.216 134.463Z" fill="white"/>
<path d="M191.265 150.227C191.412 151.005 191.391 151.549 191.202 151.861C191.013 152.178 190.596 152.397 189.949 152.519L189.166 152.667C188.665 152.761 188.267 152.709 187.971 152.512C187.675 152.314 187.411 151.919 187.181 151.326C187.231 151.975 187.145 152.476 186.924 152.827C186.703 153.178 186.331 153.403 185.809 153.502L184.904 153.672C184.202 153.804 183.689 153.741 183.364 153.481C183.04 153.226 182.804 152.705 182.655 151.916L181.618 146.41C181.471 145.627 181.499 145.059 181.702 144.705C181.912 144.35 182.37 144.106 183.077 143.973L183.982 143.803C184.499 143.705 184.924 143.78 185.258 144.027C185.597 144.273 185.86 144.702 186.049 145.314C186.054 144.682 186.158 144.218 186.361 143.92C186.565 143.629 186.914 143.436 187.409 143.343L188.192 143.195C188.84 143.073 189.308 143.123 189.597 143.345C189.888 143.571 190.106 144.074 190.253 144.851L191.265 150.227ZM189.671 149.835L188.914 145.813C188.851 145.481 188.755 145.269 188.624 145.175C188.5 145.08 188.279 145.063 187.964 145.122L187.532 145.203C187.222 145.262 187.023 145.358 186.936 145.493C186.854 145.627 186.844 145.859 186.907 146.191L187.664 150.213C187.726 150.539 187.819 150.747 187.942 150.836C188.067 150.931 188.287 150.948 188.603 150.889L189.035 150.808C189.356 150.747 189.557 150.65 189.639 150.516C189.722 150.388 189.733 150.161 189.671 149.835ZM186.297 150.665L185.465 146.252C185.404 145.925 185.311 145.717 185.187 145.628C185.064 145.539 184.841 145.524 184.52 145.585L183.892 145.703C183.577 145.763 183.377 145.854 183.293 145.976C183.215 146.098 183.208 146.328 183.271 146.665L184.102 151.078C184.165 151.41 184.255 151.618 184.372 151.703C184.496 151.792 184.716 151.807 185.031 151.748L185.659 151.629C185.98 151.569 186.182 151.475 186.265 151.346C186.347 151.218 186.358 150.991 186.297 150.665Z" fill="white"/>
<path d="M189.743 170.71C189.529 170.108 189.337 169.494 189.168 168.867C189.005 168.239 188.862 167.601 188.74 166.954C188.478 165.562 188.458 164.575 188.681 163.992C188.91 163.414 189.44 163.047 190.272 162.89L191.43 162.672C192.148 162.537 192.723 162.673 193.155 163.082C193.588 163.496 193.899 164.209 194.09 165.22L194.775 168.858C194.98 169.946 194.93 170.727 194.625 171.201C194.32 171.675 193.662 172.007 192.65 172.198L191.517 172.412C189.912 172.714 188.568 172.393 187.483 171.448C186.399 170.504 185.666 169.02 185.285 166.997C185.253 166.828 185.232 166.7 185.221 166.612C185.206 166.53 185.196 166.451 185.193 166.372L186.348 164.93L186.451 165.476C186.798 167.315 187.216 168.61 187.707 169.362C188.199 170.12 188.878 170.569 189.743 170.71ZM191.083 170.559C191.184 170.557 191.279 170.55 191.367 170.539C191.461 170.533 191.541 170.523 191.606 170.511C192.455 170.351 192.961 170.14 193.126 169.879C193.29 169.617 193.302 169.108 193.159 168.352L192.709 165.962C192.595 165.358 192.441 164.956 192.245 164.757C192.05 164.557 191.746 164.496 191.333 164.574L190.851 164.665C190.433 164.743 190.174 164.924 190.075 165.208C189.976 165.491 190 166.019 190.145 166.791C190.248 167.335 190.376 167.924 190.529 168.56C190.689 169.2 190.874 169.866 191.083 170.559Z" fill="white"/>
<path d="M189.196 178.119L190.356 184.278L195.96 183.223L194.8 177.064L189.196 178.119ZM193.89 175.369C194.678 175.22 195.24 175.255 195.574 175.474C195.914 175.697 196.156 176.189 196.299 176.95L197.398 182.783C197.542 183.55 197.496 184.096 197.259 184.422C197.029 184.753 196.519 184.993 195.731 185.141L191.187 185.997C190.398 186.146 189.834 186.108 189.493 185.885C189.159 185.667 188.92 185.174 188.776 184.407L187.677 178.575C187.534 177.813 187.577 177.267 187.808 176.937C188.045 176.61 188.558 176.373 189.346 176.225L193.89 175.369Z" fill="white"/>
<path d="M190.558 193.87L197.541 192.554L197.195 190.719L198.345 190.502L199.588 194.052L190.901 195.689L190.558 193.87Z" fill="white"/>
<path d="M199.253 201.912C199.9 201.79 200.368 201.84 200.658 202.061C200.947 202.282 201.165 202.782 201.312 203.56L202.146 207.989C202.293 208.767 202.271 209.311 202.082 209.623C201.894 209.94 201.477 210.159 200.829 210.281L200.275 210.386C199.856 210.464 199.523 210.46 199.275 210.371C199.029 210.288 198.707 210.03 198.31 209.598L194.281 205.112L195.224 210.121L196.497 209.881L196.348 211.556L195.663 211.685C195.016 211.807 194.547 211.755 194.256 211.528C193.967 211.306 193.749 210.807 193.602 210.029L192.236 202.777L193.019 202.63C193.4 202.558 193.708 202.582 193.945 202.7C194.182 202.825 194.467 203.067 194.8 203.426L199.594 208.698L200.719 208.486L199.794 203.575L198.016 203.91L198.135 202.122L199.253 201.912Z" fill="white"/>
<path d="M196.25 224.084C196.103 223.307 196.124 222.759 196.312 222.442C196.501 222.131 196.919 221.914 197.567 221.792L198.268 221.66L198.969 223.361L197.761 223.588L198.637 228.238C198.7 228.57 198.793 228.78 198.917 228.87C199.041 228.964 199.259 228.982 199.569 228.924L200.197 228.806C200.512 228.746 200.711 228.65 200.793 228.516C200.88 228.381 200.893 228.151 200.831 227.825L200.283 224.913L201.686 224.648L202.175 227.242C202.236 227.569 202.329 227.776 202.453 227.866C202.576 227.955 202.796 227.97 203.111 227.91L203.544 227.829C203.865 227.769 204.066 227.674 204.149 227.546C204.232 227.418 204.243 227.191 204.181 226.864L203.379 222.606L202.302 222.809L202.299 221.044L202.838 220.943C203.485 220.821 203.953 220.871 204.243 221.092C204.532 221.313 204.75 221.813 204.897 222.591L205.776 227.257C205.922 228.034 205.901 228.579 205.712 228.89C205.523 229.202 205.105 229.419 204.457 229.541L203.674 229.688C203.169 229.783 202.77 229.732 202.479 229.533C202.189 229.334 201.936 228.934 201.721 228.333C201.786 229.036 201.707 229.574 201.485 229.948C201.263 230.323 200.882 230.56 200.344 230.662L199.438 230.832C198.731 230.965 198.216 230.905 197.892 230.651C197.574 230.395 197.341 229.876 197.193 229.093L196.25 224.084Z" fill="white"/>
<path d="M199.354 241.103L201.353 240.726L200.122 234.192L201.566 233.92L208.158 239.368L208.515 241.261L203.139 242.273L203.533 244.361L202.089 244.633L201.695 242.545L199.697 242.922L199.354 241.103ZM202.797 240.454L206.655 239.727L201.908 235.739L202.797 240.454Z" fill="white"/>
<path d="M204.651 247.563L209.523 247.152L210.926 254.6L209.43 254.73L208.296 248.71L206.587 248.829C206.803 249.554 206.979 250.194 207.118 250.748C207.257 251.307 207.37 251.818 207.457 252.28C207.725 253.705 207.682 254.82 207.327 255.624C206.977 256.428 206.315 256.921 205.342 257.105C204.33 257.295 203.525 257.058 202.927 256.394C202.33 255.735 201.874 254.571 201.56 252.901C201.395 252.026 201.276 251.229 201.202 250.51C201.13 249.798 201.105 249.186 201.127 248.675L202.71 247.929C202.716 248.801 202.751 249.616 202.816 250.375C202.886 251.139 202.987 251.866 203.117 252.557C203.321 253.639 203.57 254.381 203.865 254.781C204.166 255.181 204.569 255.333 205.075 255.238C205.553 255.147 205.855 254.868 205.981 254.4C206.107 253.931 206.073 253.186 205.881 252.163C205.758 251.511 205.593 250.798 205.385 250.027C205.178 249.255 204.933 248.434 204.651 247.563Z" fill="white"/>
<path d="M207.427 262.033C207.355 262.036 207.282 262.041 207.211 262.049C207.139 262.057 207.043 262.072 206.924 262.094C206.092 262.251 205.596 262.457 205.435 262.713C205.282 262.972 205.275 263.478 205.417 264.228L205.87 266.635C205.982 267.227 206.132 267.621 206.321 267.817C206.511 268.017 206.804 268.08 207.201 268.006L207.674 267.916C208.077 267.841 208.324 267.662 208.418 267.379C208.517 267.102 208.495 266.582 208.352 265.821C208.236 265.206 208.099 264.582 207.94 263.947C207.788 263.317 207.617 262.679 207.427 262.033ZM208.754 261.902C208.976 262.541 209.171 263.172 209.339 263.793C209.513 264.419 209.658 265.04 209.774 265.654C210.036 267.046 210.052 268.032 209.823 268.61C209.6 269.187 209.069 269.554 208.232 269.712L207.065 269.932C206.348 270.067 205.772 269.927 205.34 269.513C204.907 269.099 204.595 268.387 204.405 267.375L203.718 263.729C203.513 262.641 203.563 261.86 203.868 261.386C204.173 260.912 204.831 260.58 205.842 260.389L206.976 260.176C208.58 259.873 209.925 260.194 211.009 261.139C212.1 262.088 212.836 263.574 213.217 265.597C213.232 265.673 213.244 265.755 213.255 265.843C213.273 265.935 213.288 266.059 213.3 266.215L212.138 267.667L212.033 267.112C211.688 265.28 211.27 263.987 210.779 263.235C210.294 262.482 209.619 262.037 208.754 261.902Z" fill="white"/>
</g>
</g>
<defs>
<filter id="filter0_i_0_5173" x="163.778" y="48.3364" width="51.5219" height="222.645" filterUnits="userSpaceOnUse" color-interpolation-filters="sRGB">
<feFlood flood-opacity="0" result="BackgroundImageFix"/>
<feBlend mode="normal" in="SourceGraphic" in2="BackgroundImageFix" result="shape"/>
<feColorMatrix in="SourceAlpha" type="matrix" values="0 0 0 0 0 0 0 0 0 0 0 0 0 0 0 0 0 0 127 0" result="hardAlpha"/>
<feOffset dx="2" dy="1"/>
<feGaussianBlur stdDeviation="1"/>
<feComposite in2="hardAlpha" operator="arithmetic" k2="-1" k3="1"/>
<feColorMatrix type="matrix" values="0 0 0 0 0 0 0 0 0 0 0 0 0 0 0 0 0 0 0.15 0"/>
<feBlend mode="normal" in2="shape" result="effect1_innerShadow_0_5173"/>
</filter>
<linearGradient id="paint0_linear_0_5173" x1="492.906" y1="428.465" x2="492.906" y2="864.465" gradientUnits="userSpaceOnUse">
<stop stop-color="#083EFD"/>
<stop offset="1" stop-opacity="0"/>
</linearGradient>
<linearGradient id="paint1_linear_0_5173" x1="492.906" y1="428.465" x2="492.906" y2="864.465" gradientUnits="userSpaceOnUse">
<stop stop-color="#E42C64"/>
<stop offset="1" stop-color="#614AD3"/>
</linearGradient>
<linearGradient id="paint2_linear_0_5173" x1="179.869" y1="120.073" x2="179.869" y2="187.073" gradientUnits="userSpaceOnUse">
<stop stop-color="#F9AA4B"/>
<stop offset="1" stop-color="#E8B579"/>
</linearGradient>
</defs>
</svg>
