<svg width="76" height="27" viewBox="0 0 76 27" fill="none" xmlns="http://www.w3.org/2000/svg">
<path d="M15.0084 13.6179C14.9032 13.4229 14.7032 13.3013 14.4856 13.3013H11.0978V6.61191C11.0978 6.27414 10.83 6 10.5 6C10.1701 6 9.90232 6.27414 9.90232 6.61191V13.3013H6.51445C6.29608 13.3013 6.09605 13.4229 5.99164 13.6179C5.88565 13.8129 5.89282 14.0511 6.00838 14.2396L9.99397 20.7144C10.104 20.8923 10.2944 21 10.5 21C10.7057 21 10.8961 20.8923 11.0061 20.7144L14.9917 14.2396C15.0523 14.1401 15.0834 14.0267 15.0834 13.9132C15.0834 13.8121 15.0578 13.7101 15.0084 13.6179Z" fill="#FA2256"/>
<path d="M29.5094 20C29.3894 20 29.2814 19.958 29.1854 19.874C29.1014 19.79 29.0594 19.682 29.0594 19.55V10.604L26.4674 12.602C26.3594 12.686 26.2454 12.716 26.1254 12.692C26.0174 12.668 25.9214 12.602 25.8374 12.494L24.9374 11.324C24.8654 11.216 24.8354 11.102 24.8474 10.982C24.8714 10.862 24.9374 10.766 25.0454 10.694L29.1494 7.526C29.2214 7.478 29.2874 7.448 29.3474 7.436C29.4194 7.412 29.4974 7.4 29.5814 7.4H31.4894C31.6094 7.4 31.7114 7.442 31.7954 7.526C31.8794 7.61 31.9214 7.718 31.9214 7.85V19.55C31.9214 19.682 31.8794 19.79 31.7954 19.874C31.7114 19.958 31.6094 20 31.4894 20H29.5094ZM34.6127 20C34.4807 20 34.3727 19.958 34.2887 19.874C34.2047 19.79 34.1627 19.682 34.1627 19.55V17.534C34.1627 17.402 34.2047 17.294 34.2887 17.21C34.3727 17.126 34.4807 17.084 34.6127 17.084H36.6287C36.7607 17.084 36.8687 17.126 36.9527 17.21C37.0367 17.294 37.0787 17.402 37.0787 17.534V19.55C37.0787 19.682 37.0367 19.79 36.9527 19.874C36.8687 19.958 36.7607 20 36.6287 20H34.6127ZM45.0091 20C44.8891 20 44.7871 19.958 44.7031 19.874C44.6191 19.79 44.5771 19.682 44.5771 19.55V17.39H38.9071C38.7871 17.39 38.6851 17.348 38.6011 17.264C38.5171 17.18 38.4751 17.072 38.4751 16.94V15.482C38.4751 15.398 38.4931 15.308 38.5291 15.212C38.5651 15.116 38.6131 15.026 38.6731 14.942L43.9471 7.706C44.1031 7.502 44.3251 7.4 44.6131 7.4H46.8991C47.0191 7.4 47.1211 7.442 47.2051 7.526C47.2891 7.61 47.3311 7.718 47.3311 7.85V14.996H48.9331C49.0771 14.996 49.1851 15.038 49.2571 15.122C49.3411 15.206 49.3831 15.308 49.3831 15.428V16.94C49.3831 17.072 49.3411 17.18 49.2571 17.264C49.1731 17.348 49.0711 17.39 48.9511 17.39H47.3311V19.55C47.3311 19.682 47.2891 19.79 47.2051 19.874C47.1211 19.958 47.0191 20 46.8991 20H45.0091ZM41.2651 15.086H44.6311V10.352L41.2651 15.086ZM53.0931 20C52.9851 20 52.8951 19.964 52.8231 19.892C52.7511 19.808 52.7151 19.712 52.7151 19.604C52.7151 19.544 52.7211 19.496 52.7331 19.46C52.7571 19.424 52.7751 19.394 52.7871 19.37L55.3971 15.806C55.1811 15.854 54.9651 15.872 54.7491 15.86C54.1731 15.836 53.6271 15.722 53.1111 15.518C52.5951 15.302 52.1331 15.008 51.7251 14.636C51.3171 14.264 50.9991 13.826 50.7711 13.322C50.5431 12.818 50.4291 12.26 50.4291 11.648C50.4291 11.096 50.5311 10.556 50.7351 10.028C50.9511 9.5 51.2691 9.026 51.6891 8.606C52.1091 8.186 52.6311 7.85 53.2551 7.598C53.8791 7.346 54.6051 7.22 55.4331 7.22C56.2611 7.22 56.9871 7.334 57.6111 7.562C58.2471 7.79 58.7811 8.108 59.2131 8.516C59.6451 8.912 59.9691 9.374 60.1851 9.902C60.4011 10.418 60.5091 10.97 60.5091 11.558C60.5091 12.086 60.4191 12.578 60.2391 13.034C60.0591 13.49 59.8371 13.916 59.5731 14.312C59.3091 14.708 59.0451 15.092 58.7811 15.464L55.7571 19.64C55.7091 19.7 55.6371 19.778 55.5411 19.874C55.4451 19.958 55.3071 20 55.1271 20H53.0931ZM55.4511 13.736C55.8471 13.736 56.2071 13.652 56.5311 13.484C56.8551 13.316 57.1071 13.076 57.2871 12.764C57.4791 12.452 57.5751 12.08 57.5751 11.648C57.5751 11.204 57.4791 10.826 57.2871 10.514C57.1071 10.202 56.8551 9.962 56.5311 9.794C56.2071 9.626 55.8471 9.542 55.4511 9.542C55.0671 9.542 54.7131 9.626 54.3891 9.794C54.0651 9.962 53.8071 10.202 53.6151 10.514C53.4351 10.826 53.3451 11.204 53.3451 11.648C53.3451 12.08 53.4351 12.452 53.6151 12.764C53.8071 13.076 54.0651 13.316 54.3891 13.484C54.7131 13.652 55.0671 13.736 55.4511 13.736ZM63.1894 20C62.9254 20 62.7934 19.88 62.7934 19.64C62.7934 19.568 62.8174 19.502 62.8654 19.442L71.7574 7.742C71.8414 7.634 71.9254 7.55 72.0094 7.49C72.0934 7.43 72.2134 7.4 72.3694 7.4H73.4854C73.7494 7.4 73.8814 7.52 73.8814 7.76C73.8814 7.832 73.8574 7.898 73.8094 7.958L64.9174 19.658C64.8334 19.766 64.7494 19.85 64.6654 19.91C64.5934 19.97 64.4734 20 64.3054 20H63.1894ZM72.0454 20.09C71.2294 20.09 70.5814 19.874 70.1014 19.442C69.6334 19.01 69.3754 18.434 69.3274 17.714C69.3034 17.402 69.2914 17.126 69.2914 16.886C69.3034 16.646 69.3154 16.358 69.3274 16.022C69.3634 15.302 69.6094 14.72 70.0654 14.276C70.5334 13.832 71.1934 13.61 72.0454 13.61C72.8974 13.61 73.5514 13.832 74.0074 14.276C74.4754 14.72 74.7274 15.302 74.7634 16.022C74.7874 16.358 74.7994 16.646 74.7994 16.886C74.7994 17.126 74.7874 17.402 74.7634 17.714C74.7274 18.434 74.4634 19.01 73.9714 19.442C73.4914 19.874 72.8494 20.09 72.0454 20.09ZM72.0454 18.614C72.2734 18.614 72.4534 18.566 72.5854 18.47C72.7174 18.374 72.8134 18.248 72.8734 18.092C72.9454 17.936 72.9874 17.774 72.9994 17.606C73.0234 17.33 73.0354 17.084 73.0354 16.868C73.0354 16.64 73.0234 16.388 72.9994 16.112C72.9874 15.86 72.9094 15.632 72.7654 15.428C72.6214 15.224 72.3814 15.122 72.0454 15.122C71.7094 15.122 71.4694 15.224 71.3254 15.428C71.1934 15.632 71.1154 15.86 71.0914 16.112C71.0794 16.388 71.0734 16.64 71.0734 16.868C71.0734 17.084 71.0794 17.33 71.0914 17.606C71.1154 17.774 71.1514 17.936 71.1994 18.092C71.2594 18.248 71.3554 18.374 71.4874 18.47C71.6314 18.566 71.8174 18.614 72.0454 18.614ZM64.6474 13.754C63.8314 13.754 63.1834 13.544 62.7034 13.124C62.2354 12.692 61.9774 12.116 61.9294 11.396C61.9054 11.084 61.8934 10.814 61.8934 10.586C61.9054 10.346 61.9174 10.058 61.9294 9.722C61.9654 8.99 62.2114 8.408 62.6674 7.976C63.1354 7.532 63.7954 7.31 64.6474 7.31C65.5114 7.31 66.1714 7.532 66.6274 7.976C67.0834 8.408 67.3294 8.99 67.3654 9.722C67.3894 10.058 67.4014 10.346 67.4014 10.586C67.4014 10.814 67.3894 11.084 67.3654 11.396C67.3294 12.116 67.0714 12.692 66.5914 13.124C66.1114 13.544 65.4634 13.754 64.6474 13.754ZM64.6474 12.296C64.8754 12.296 65.0554 12.248 65.1874 12.152C65.3194 12.056 65.4154 11.93 65.4754 11.774C65.5474 11.618 65.5894 11.462 65.6014 11.306C65.6254 11.018 65.6374 10.766 65.6374 10.55C65.6374 10.322 65.6254 10.076 65.6014 9.812C65.5894 9.56 65.5114 9.332 65.3674 9.128C65.2234 8.912 64.9834 8.804 64.6474 8.804C64.3114 8.804 64.0714 8.912 63.9274 9.128C63.7954 9.332 63.7174 9.56 63.6934 9.812C63.6814 10.076 63.6754 10.322 63.6754 10.55C63.6754 10.766 63.6814 11.018 63.6934 11.306C63.7174 11.462 63.7594 11.618 63.8194 11.774C63.8794 11.93 63.9754 12.056 64.1074 12.152C64.2394 12.248 64.4194 12.296 64.6474 12.296Z" fill="#FA2256"/>
</svg>
