<svg width="44" height="44" viewBox="0 0 44 44" fill="none" xmlns="http://www.w3.org/2000/svg">
<g clip-path="url(#clip0_46_462)">
<circle cx="22" cy="22" r="22" fill="#25292C"/>
<path d="M31.0736 9.16666H34.7833L27.0632 18.397C24.2675 21.7379 19.7347 21.7379 16.9369 18.397L9.21387 9.16666H12.9265L18.7917 16.1784C19.6463 17.1954 20.798 17.7656 21.9978 17.7656C23.1977 17.7656 24.3493 17.1954 25.2039 16.1784L31.0736 9.16666Z" fill="white"/>
<path d="M12.8788 34.8334H9.16666L16.9368 25.5461C19.7326 22.2052 24.2654 22.2052 27.0631 25.5461L34.8333 34.8334H31.1237L25.2083 27.7647C24.3538 26.7477 23.2021 26.1775 22.0022 26.1775C20.8024 26.1775 19.6507 26.7477 18.7962 27.7647L12.8788 34.8334Z" fill="white"/>
</g>
<defs>
<clipPath id="clip0_46_462">
<rect width="44" height="44" fill="white"/>
</clipPath>
</defs>
</svg>
